<svg width="644" height="311" viewBox="0 0 644 311" fill="none" xmlns="http://www.w3.org/2000/svg">
<path d="M244.174 216.177C243.023 216.52 242.694 217.232 242.639 217.958C242.475 219.698 242.228 221.48 242.42 223.206C242.927 227.837 245.366 231.413 249.01 234.222C253.765 237.907 259.232 239.771 265.137 240.538C268.74 241.018 272.385 241.018 275.975 240.716C282.305 240.182 288.388 238.592 294.184 235.921C300.993 232.783 306.967 228.453 312.407 223.329C315.448 220.466 318.326 217.451 321.038 214.273C324.19 210.56 326.971 206.559 329.739 202.558C332.397 198.708 335.014 194.83 337.617 190.939C340.864 186.089 344.043 181.184 347.304 176.347C350.62 171.442 353.949 166.537 357.388 161.701C361.718 155.617 366.486 149.876 371.377 144.218C377.241 137.435 383.352 130.914 390.011 124.899C392.176 122.939 394.546 121.213 396.807 119.377C397.163 119.089 397.492 118.788 397.999 118.363C396.766 117.404 395.683 116.472 394.519 115.691C388.134 111.458 381.146 108.731 373.652 107.169C368.733 106.142 363.773 105.457 358.758 105.292C355.045 105.169 351.332 104.95 347.633 105.128C343.385 105.347 339.138 105.895 334.918 106.429C330.958 106.936 327.053 107.827 323.244 108.991C319.792 110.033 316.366 111.238 313.009 112.554C308.337 114.376 303.884 116.678 299.582 119.254C295.088 121.953 290.731 124.871 286.758 128.297C283.003 131.53 279.277 134.818 275.769 138.326C270.919 143.176 266.493 148.438 262.657 154.151C258.67 160.125 255.45 166.469 253.737 173.497C252.6 178.183 252.175 182.924 252.915 187.719C253.888 194.036 256.971 199.078 262.219 202.791C266.315 205.682 270.933 207.107 275.879 207.395C278.646 207.559 281.442 207.518 284.209 207.312C286.319 207.148 288.429 206.668 290.484 206.148C294.321 205.189 297.993 203.736 301.514 201.955C306.583 199.407 311.297 196.296 315.722 192.748C319.49 189.733 323.121 186.555 326.464 183.075C330.89 178.485 334.877 173.566 337.918 167.935C340.371 163.399 342.111 158.631 342.577 153.48C342.796 150.986 342.851 148.479 342.303 145.999C341.042 140.285 337.48 137.257 331.986 136.271C327.122 135.408 322.381 136.079 317.75 137.709C311.393 139.956 305.926 143.656 300.815 147.944C296.047 151.959 291.676 156.371 287.826 161.262C284.552 165.427 281.784 169.908 280.044 174.963C278.962 178.115 278.386 181.321 278.482 184.664C278.605 188.857 282.236 192.679 286.429 192.926C287.155 192.967 287.963 192.83 288.224 193.803C287.895 194.515 287.265 194.502 286.662 194.529C283.62 194.68 281.14 193.501 279.112 191.295C276.386 188.322 275.18 184.76 274.988 180.773C274.742 175.498 275.906 170.538 278.222 165.838C280.154 161.961 282.688 158.494 285.579 155.247C288.457 152.014 291.704 149.178 295.074 146.492C300.377 142.272 306.145 138.888 312.557 136.654C317.873 134.805 323.354 133.928 328.971 134.175C331.849 134.298 334.685 134.777 337.316 136.079C340.631 137.709 342.714 140.368 343.728 143.889C344.618 147.013 344.618 150.178 344.358 153.398C343.865 159.399 341.81 164.866 338.905 170.045C336.631 174.1 333.904 177.854 330.753 181.266C328.465 183.76 326.135 186.226 323.669 188.528C318.682 193.186 313.325 197.379 307.419 200.873C303.049 203.462 298.486 205.586 293.636 207.093C287.169 209.107 280.551 209.765 273.824 208.956C268.425 208.313 263.479 206.449 259.177 203.024C254.121 198.982 250.983 193.775 249.517 187.528C248.476 183.075 248.298 178.567 248.736 173.991C249.243 168.62 250.572 163.495 252.71 158.563C254.82 153.685 257.615 149.219 260.917 145.053C267.233 137.093 274.851 130.585 283.168 124.803C288.854 120.857 294.787 117.322 301.048 114.39C307.611 111.321 314.352 108.717 321.422 107.046C324.176 106.402 326.916 105.648 329.698 105.196C333.493 104.58 337.329 104.21 341.138 103.716C345.427 103.155 349.743 103.196 354.059 103.251C358.416 103.305 362.759 103.675 367.089 104.237C371.473 104.813 375.789 105.676 380.036 106.854C387.147 108.813 393.847 111.745 400.081 115.664C400.931 116.198 401.465 116.157 402.301 115.65C409.083 111.554 416.222 108.279 423.99 106.484C428.525 105.429 433.115 104.813 437.774 104.922C442.597 105.032 447.31 105.881 451.64 108.087C457.901 111.266 462.299 116.144 464.683 122.802C465.67 125.57 466.163 128.406 466.396 131.352C466.807 136.654 466.067 141.792 464.779 146.889C464.45 148.177 463.998 149.452 463.505 150.698C463.121 151.644 462.614 151.931 462.094 151.726C461.559 151.52 461.409 151.041 461.696 150.041C462.121 148.575 462.642 147.136 463.039 145.656C464.135 141.601 464.656 137.463 464.45 133.27C464.231 128.639 463.327 124.145 461.025 120.048C457.572 113.91 452.503 109.759 445.68 107.827C440.487 106.361 435.225 106.429 429.937 107.142C422.058 108.197 414.742 110.896 407.782 114.623C406.398 115.363 405.041 116.185 403.685 116.979C403.383 117.157 403.137 117.431 402.781 117.733C403.74 118.582 404.589 119.363 405.439 120.117C408.741 123.022 411.618 126.283 413.769 130.105C415.934 133.955 417.304 138.052 417.318 142.546C417.331 145.012 417.263 147.465 416.633 149.863C415.838 152.836 414.646 155.645 412.824 158.152C408.658 163.865 403.096 167.702 396.546 170.278C392.765 171.771 388.846 172.689 384.859 173.319C384.64 173.36 384.434 173.429 384.243 173.484C384.051 174.155 384.489 174.333 384.887 174.593C387.654 176.388 389.929 178.677 391.491 181.609C393.327 185.075 393.916 188.802 393.642 192.666C393.299 197.502 392.148 202.188 390.751 206.805C389.298 211.587 387.737 216.355 386.312 221.151C385.394 224.275 384.832 227.453 384.9 230.742C384.969 234.688 386.517 237.935 389.367 240.579C393.327 244.265 397.999 245.375 403.274 244.333C406.206 243.758 408.796 242.497 411.234 240.84C411.769 240.47 412.33 240.141 412.892 239.826C413.399 239.552 413.879 239.579 414.249 240.072C414.591 240.524 414.482 240.977 414.125 241.333C413.701 241.758 413.248 242.169 412.728 242.47C409.097 244.525 405.219 246.005 401.082 246.416C395.3 246.978 390.052 245.457 385.613 241.538C381.132 237.592 378.42 232.632 377.186 226.85C376.145 222.014 376.392 217.191 377.419 212.354C379.05 204.613 381.639 197.173 384.065 189.665C384.763 187.514 385.215 185.267 385.503 183.02C385.928 179.69 384.791 176.827 382.352 174.47C381.804 173.936 381.242 173.758 380.489 173.826C377.817 174.032 375.118 174.333 372.446 174.292C370.377 174.265 368.308 173.84 366.267 173.511C365.76 173.429 365.212 173.1 364.828 172.744C364.129 172.086 364.28 171.182 365.184 170.867C366.047 170.579 366.979 170.415 367.897 170.373C372.062 170.182 376.145 170.716 380.064 172.168C380.913 172.483 381.735 172.525 382.64 172.333C390.052 170.785 396.149 167.099 400.931 161.235C406.713 154.151 409.056 146.026 408.261 136.983C407.946 133.435 406.699 130.16 404.987 127.022C403.685 124.652 402 122.556 400.397 120.405C399.944 119.802 399.547 119.761 398.876 120.322C396.834 122.063 394.738 123.775 392.792 125.611C388.463 129.68 384.517 134.12 380.913 138.847C377.913 142.793 375.076 146.848 372.432 151.041C368.87 156.686 365.527 162.454 362.54 168.414C359.978 173.497 357.498 178.622 354.936 183.719C351.908 189.72 348.715 195.625 345.071 201.27C342.234 205.668 339.247 209.957 335.617 213.766C332.698 216.835 329.533 219.589 326.163 222.123C319.983 226.768 313.297 230.55 306.309 233.811C299.692 236.894 292.882 239.469 285.744 241.072C282.168 241.881 278.55 242.401 274.879 242.675C270.631 242.991 266.439 242.744 262.273 242.004C256.121 240.908 250.518 238.538 245.9 234.235C241.091 229.755 239.145 224.233 240.502 217.725C241.201 214.369 243.009 211.656 246.024 209.888C248.229 208.6 250.6 208.436 252.997 209.162C254.683 209.683 255.697 210.943 256.108 212.628C256.56 214.506 256.642 216.396 256.08 218.273C255.149 221.397 252.463 224.329 247.942 223.617C245.914 223.302 244.681 222.082 244.448 220.055C244.366 219.37 244.448 218.671 244.393 217.972C244.393 217.451 244.27 216.89 244.174 216.177Z" fill="#C61920"/>
<path d="M20.7588 237.989C19.923 237.483 19.1421 237.003 18.3474 236.537C13.4971 233.632 9.44151 229.919 6.34501 225.165C2.2346 218.835 0.49453 211.834 0.0971906 204.38C-0.10833 200.653 0.0149826 196.954 0.439724 193.282C1.04258 188.048 2.45382 183.006 4.41311 178.115C6.345 173.278 8.71534 168.661 11.62 164.345C13.7437 161.193 16.0045 158.138 18.3885 155.179C21.6083 151.15 25.2529 147.506 29.1303 144.094C34.6383 139.244 40.4614 134.818 46.764 131.037C52.9981 127.296 59.5336 124.268 66.5213 122.254C71.125 120.925 75.8108 120.021 80.6337 119.898C81.9764 119.87 83.3192 119.665 84.6619 119.719C88.3339 119.856 91.9647 120.226 95.4586 121.542C103.474 124.556 108.393 130.228 110.297 138.559C110.859 141.025 111.051 143.519 110.996 146.012C110.914 149.808 110.462 153.589 109.516 157.289C109.461 157.494 109.434 157.713 109.379 158.001C109.968 158.193 110.325 157.823 110.681 157.59C115.737 154.315 120.779 151.027 125.848 147.766C128.739 145.916 131.671 144.149 134.562 142.299C135.042 141.998 135.508 141.518 135.741 141.011C137.494 137.216 139.508 133.572 141.701 130.023C144.482 125.515 147.62 121.268 151.155 117.322C154.47 113.609 157.978 110.101 162.116 107.306C165.061 105.306 168.199 103.716 171.83 103.483C172.734 103.429 173.693 103.511 174.584 103.716C176.639 104.182 177.584 105.785 177.297 107.868C176.94 110.361 175.653 112.389 174.159 114.28C170.583 118.815 166.308 122.652 161.842 126.31C157.279 130.05 152.442 133.38 147.469 136.545C146.962 136.874 146.469 137.257 145.921 137.476C144.304 138.148 143.578 139.449 143.194 141.052C141.865 146.464 140.522 151.863 139.166 157.261C138.289 160.769 137.439 164.29 136.494 167.77C135.206 172.511 133.932 177.251 132.493 181.951C130.466 188.582 127.917 194.995 123.752 200.626C121.861 203.188 119.833 205.682 117.696 208.052C113.394 212.82 108.598 217.054 103.556 221C98.8428 224.685 93.8692 228.001 88.6079 230.878C82.6067 234.167 76.3315 236.811 69.7685 238.757C64.1099 240.428 58.3279 241.538 52.45 242.141C48.6548 242.525 44.8595 242.648 41.0505 242.607C35.2411 242.538 29.5962 241.607 24.1568 239.551C22.7866 239.031 22.7592 239.031 22.1564 240.305C20.5533 243.648 19.1284 247.073 18.4844 250.759C17.7856 254.705 17.9637 258.596 19.2243 262.433C20.1423 265.241 21.5535 267.776 23.2662 270.16C23.6361 270.681 23.9649 271.256 24.2116 271.846C24.5267 272.572 24.2116 273.024 23.4032 272.996C22.403 272.969 21.5946 272.476 21.1014 271.64C20.1971 270.133 19.2654 268.626 18.5529 267.023C17.2239 264.049 16.3059 260.939 15.9771 257.678C15.4975 252.801 16.4703 248.156 18.2789 243.676C18.9914 241.812 19.8545 240.017 20.7588 237.989ZM41.352 211.464C41.119 211.162 41.0505 211.053 40.9409 210.957C35.7892 206.216 33.8299 200.434 35.4741 193.597C36.4606 189.473 38.8994 186.363 42.7495 184.431C45.1883 183.198 47.7779 183.17 50.3674 183.554C52.2719 183.842 53.7243 184.952 54.2586 186.883C54.7108 188.5 54.7519 190.199 54.2449 191.83C53.094 195.447 49.148 198.105 44.5581 197.187C42.4618 196.776 41.5575 195.488 41.489 193.323C41.4479 191.994 41.6123 190.761 42.2562 189.555C42.8454 188.473 42.818 187.76 42.3247 187.541C41.4479 187.144 40.9409 187.801 40.4203 188.308C39.2693 189.446 38.6254 190.884 38.0088 192.337C37.1045 194.501 36.5017 196.762 36.7483 199.105C37.1593 203.106 39.0912 206.367 42.0096 209.08C42.8728 209.874 42.9961 209.847 43.8045 209.052C46.6544 206.271 49.4357 203.394 52.4089 200.749C56.6016 197.022 60.9038 193.419 65.2197 189.829C67.7819 187.692 70.4262 185.65 73.1117 183.677C78.1812 179.937 83.2781 176.21 88.4435 172.607C93.9103 168.784 99.4594 165.071 105.036 161.399C106.283 160.577 107.077 159.618 107.351 158.152C107.831 155.603 108.475 153.069 108.845 150.506C109.53 145.875 109.571 141.244 108.009 136.75C105.584 129.749 100.747 125.131 93.7322 122.857C87.6899 120.884 81.5243 121.323 75.4135 122.432C67.5626 123.871 60.3557 127.063 53.6558 131.338C47.9286 134.996 42.7221 139.326 37.954 144.135C34.926 147.191 32.0898 150.452 29.2674 153.699C25.3762 158.193 21.9919 163.057 18.9228 168.14C16.3333 172.442 14.1 176.923 12.3051 181.595C9.77034 188.24 8.04397 195.104 7.56443 202.229C7.22189 207.23 7.13968 212.245 8.2769 217.177C9.24969 221.383 10.8665 225.288 13.5245 228.741C15.5249 231.344 17.95 233.468 20.704 235.236C21.8138 235.948 21.9782 235.934 22.6633 234.866C27.7739 226.809 33.871 219.534 40.4203 212.628C40.7217 212.286 41.0094 211.888 41.352 211.464ZM23.869 237.044C24.1705 237.236 24.2801 237.332 24.4034 237.387C24.65 237.51 24.8966 237.647 25.157 237.743C29.3222 239.414 33.6655 240.456 38.1321 240.73C41.7904 240.963 45.4487 240.976 49.1206 240.565C52.957 240.141 56.7523 239.483 60.4516 238.401C67.4804 236.359 74.0708 233.345 80.2638 229.426C85.9635 225.809 91.2249 221.644 96.0066 216.903C99.706 213.245 103.063 209.285 106.146 205.093C109.475 200.571 112.613 195.913 115.257 190.966C117.052 187.623 118.751 184.198 120.203 180.69C122.711 174.607 125.012 168.428 127.369 162.276C129.411 156.96 131.425 151.63 133.452 146.3C133.589 145.93 133.672 145.546 133.85 144.93C133.343 145.177 133.055 145.272 132.795 145.437C130.493 146.903 128.164 148.342 125.889 149.849C120.477 153.425 115.079 157.042 109.667 160.618C108.817 161.18 108.269 161.878 107.94 162.865C106.214 168.058 104.063 173.059 101.391 177.854C98.3084 183.376 94.6913 188.514 90.5124 193.241C86.6623 197.598 82.4971 201.612 77.866 205.134C73.3035 208.614 68.4395 211.518 62.9179 213.259C56.5056 215.286 50.1619 215.519 43.8867 212.738C43.3112 212.478 42.9413 212.587 42.544 213.026C41.7219 213.957 40.8724 214.889 40.0229 215.793C34.9945 221.137 30.5553 226.946 26.4312 233.016C25.568 234.318 24.787 235.619 23.869 237.044ZM105.337 163.756C105.241 163.687 105.145 163.605 105.05 163.536C104.529 163.893 104.008 164.235 103.488 164.591C99.8156 167.099 96.1162 169.579 92.4854 172.127C89.3341 174.333 86.2376 176.607 83.1411 178.896C79.0855 181.896 75.0162 184.897 71.0154 187.98C67.6037 190.61 64.2743 193.337 60.9312 196.063C55.5328 200.448 50.3811 205.12 45.435 210.011C45.1609 210.285 44.9554 210.614 44.5992 211.066C45.3116 211.423 45.8186 211.738 46.3529 211.957C51.3402 213.916 56.3686 213.546 61.3833 212.135C66.9461 210.559 71.8237 207.641 76.3589 204.12C79.8801 201.393 83.2233 198.461 86.1691 195.104C88.1832 192.802 90.2932 190.569 92.1428 188.144C97.6782 180.923 101.98 173.004 105.173 164.495C105.269 164.276 105.282 164.016 105.337 163.756ZM145.057 135.503C145.14 135.572 145.208 135.64 145.29 135.723C145.633 135.558 146.003 135.435 146.332 135.229C147.113 134.736 147.866 134.202 148.647 133.709C153.799 130.406 158.745 126.83 163.404 122.857C166.966 119.815 170.391 116.637 173.173 112.828C174.214 111.403 175.146 109.896 175.406 108.101C175.653 106.388 174.803 105.278 173.104 105.128C172.378 105.059 171.624 105.128 170.898 105.251C168.089 105.744 165.705 107.169 163.472 108.868C159.458 111.923 156.197 115.732 153.278 119.802C150.332 123.898 147.907 128.31 145.989 132.996C145.66 133.818 145.373 134.668 145.057 135.503Z" fill="#C61920"/>
<path d="M210.726 136.448C214.918 137.243 219.015 137.147 223.386 135.996C208.821 159.604 194.147 182.745 180.199 206.325C180.322 206.435 180.459 206.531 180.583 206.64C180.788 206.339 180.966 206.037 181.186 205.75C183.364 202.927 185.474 200.036 187.748 197.296C190.831 193.583 194.188 190.103 198.148 187.294C200.313 185.759 202.656 184.567 205.341 184.17C207.725 183.814 209.89 184.348 211.808 185.718C214.535 187.664 216.042 190.404 216.686 193.692C217.412 197.406 216.604 200.845 215.22 204.256C213.137 209.408 210.054 213.984 206.999 218.574C204.382 222.506 201.806 226.466 199.737 230.714C199.217 231.796 198.792 232.933 198.477 234.098C197.778 236.578 199.052 239.469 202.587 239.359C203.491 239.332 204.423 239.085 205.273 238.756C207.246 238.003 208.89 236.701 210.493 235.358C213.754 232.645 216.604 229.521 219.234 226.219C222.632 221.945 225.893 217.547 229.195 213.189C230.688 211.23 232.168 209.271 233.634 207.312C233.949 206.887 234.265 206.503 234.922 206.736C235.183 207.353 234.867 207.805 234.525 208.243C231.634 212.148 228.784 216.094 225.838 219.958C221.728 225.343 217.467 230.604 212.397 235.139C210.534 236.811 208.547 238.331 206.328 239.51C199.162 243.305 191.229 238.345 190.804 230.083C190.598 226.055 191.694 222.383 193.38 218.821C195.051 215.286 197.175 212.025 199.354 208.791C202.793 203.667 206.273 198.584 209.054 193.062C209.451 192.281 209.794 191.459 210.068 190.623C210.972 187.897 209.41 185.636 206.533 185.513C204.505 185.417 202.71 186.198 201.025 187.212C197.531 189.308 194.64 192.103 191.845 195.049C186.255 200.94 181.679 207.572 177.431 214.436C173.157 221.328 169.087 228.329 164.936 235.303C164.155 236.619 163.442 237.975 162.675 239.291C162.469 239.647 162.209 239.962 162.031 240.195C160.154 240.044 158.414 239.784 156.674 239.784C154.934 239.784 153.194 240.044 151.289 240.195C151.44 239.798 151.522 239.469 151.687 239.167C154.975 233.248 158.277 227.343 161.538 221.424C161.812 220.931 162.428 220.479 162.058 219.52C161.086 220.712 160.236 221.78 159.373 222.835C157.537 225.041 155.701 227.247 153.838 229.439C151.673 231.988 149.248 234.29 146.658 236.4C144.562 238.099 142.356 239.647 139.725 240.428C135.382 241.702 130.614 239.88 128.161 236.098C125.997 232.755 125.805 229.124 126.545 225.37C127.161 222.26 128.367 219.314 129.942 216.574C133.436 210.504 137.04 204.517 140.616 198.502C142.863 194.72 145.137 190.938 147.384 187.157C147.631 186.732 147.823 186.28 148.083 185.759C146.891 185.321 145.836 185.581 144.795 185.54C143.726 185.499 142.657 185.54 141.589 185.526C140.547 185.513 139.492 185.609 138.355 185.444C138.684 184.444 139.163 184.019 140.109 184.047C142.657 184.102 145.219 184.033 147.768 184.088C148.713 184.102 149.302 183.8 149.796 182.964C153.248 177.196 156.756 171.469 160.236 165.714C160.88 164.646 160.88 164.673 162.1 164.933C165.36 165.632 168.635 165.536 172.033 164.769C171.965 165.111 171.978 165.385 171.869 165.577C169.046 170.318 166.224 175.045 163.401 179.772C162.785 180.799 162.154 181.827 161.552 182.868C161.401 183.129 161.346 183.444 161.168 183.951C162.675 184.143 164.045 184.033 165.415 184.047C166.758 184.06 168.114 184.047 169.457 184.047C170.841 184.047 172.239 184.047 173.622 184.047C173.581 185.307 173.417 185.513 172.307 185.513C168.731 185.526 165.155 185.554 161.579 185.485C160.51 185.472 159.907 185.828 159.373 186.76C156.331 192.062 153.207 197.31 150.111 202.585C146.137 209.326 142.123 216.039 138.218 222.822C136.807 225.26 135.574 227.823 134.423 230.398C133.71 232.001 133.436 233.755 133.546 235.564C133.683 237.811 135.327 239.058 137.163 239.318C139.369 239.633 141.274 238.838 143.068 237.715C146.576 235.536 149.44 232.618 152.207 229.617C156.893 224.534 160.949 218.93 165.073 213.381C168.649 208.572 171.389 203.256 174.335 198.049C176.061 194.98 177.911 191.98 179.692 188.952C181.432 186.006 183.186 183.06 184.94 180.101C188.927 173.36 192.914 166.619 196.874 159.878C198.984 156.288 201.066 152.671 203.19 149.081C205.56 145.053 207.958 141.024 210.342 136.996C210.424 136.846 210.548 136.709 210.726 136.448Z" fill="#C61920"/>
<path d="M468.998 216.679C468.286 217.487 467.56 218.295 466.861 219.117C462.175 224.516 457.256 229.667 451.474 233.942C447.83 236.641 444.007 238.984 439.595 240.122C435.156 241.259 430.758 241.218 426.62 238.902C422.811 236.765 420.18 233.586 418.906 229.448C416.851 222.762 418.043 216.418 421.318 210.403C423.729 205.978 427.168 202.415 431.032 199.25C436.622 194.66 442.87 191.112 449.419 188.125C453.872 186.097 458.462 184.508 463.394 184.124C466.231 183.905 468.848 184.439 471.053 186.371C472.903 187.988 473.643 190.043 473.369 192.482C473.081 195.167 471.93 197.428 470.094 199.374C467.587 202.018 464.477 203.758 461.175 205.169C453.721 208.376 445.911 210.362 438.02 212.061C436.389 212.417 434.745 212.746 433.128 213.157C432.731 213.253 432.306 213.596 432.073 213.938C429.744 217.46 427.744 221.159 426.456 225.214C425.743 227.461 425.469 229.75 425.661 232.079C425.976 236.08 428.949 238.793 433.279 239.176C436.855 239.505 440.198 238.655 443.418 237.244C446.884 235.723 449.967 233.586 452.885 231.216C458.421 226.722 463.203 221.501 467.724 216.007C469.766 213.541 471.615 210.951 473.314 208.238C475.493 204.745 478.439 201.895 481.617 199.305C487.303 194.688 493.606 191.071 500.265 188.07C504.677 186.083 509.225 184.494 514.117 184.138C516.487 183.96 518.707 184.343 520.762 185.659C523.543 187.454 524.365 190.029 523.913 193.112C523.475 196.14 521.858 198.483 519.57 200.47C515.925 203.649 511.568 205.43 507.102 207.019C500.621 209.335 493.948 210.951 487.235 212.39C486.152 212.623 485.043 212.801 483.988 213.116C483.494 213.267 482.905 213.555 482.645 213.966C480.836 216.884 479.096 219.83 477.863 223.05C477 225.324 476.328 227.626 476.26 230.065C476.191 233.011 476.794 235.71 479.37 237.573C480.932 238.697 482.741 239.067 484.618 239.19C488.386 239.423 491.866 238.34 495.182 236.683C499.826 234.367 503.841 231.147 507.622 227.64C511.198 224.324 514.487 220.72 517.583 216.966C519.94 214.103 522.146 211.129 524.434 208.211C524.776 207.773 525.133 207.334 525.571 206.992C525.818 206.814 526.297 206.704 526.544 206.827C526.996 207.046 526.763 207.458 526.558 207.786C526.338 208.143 526.119 208.499 525.859 208.828C522.022 213.472 518.268 218.186 514.309 222.721C510.486 227.092 506.239 231.051 501.512 234.449C497.922 237.039 494.113 239.245 489.742 240.272C485.906 241.163 482.083 241.204 478.425 239.505C473.259 237.121 470.204 233.024 469.026 227.516C468.327 224.242 468.478 220.967 469.176 217.72C469.231 217.432 469.231 217.144 469.272 216.843C469.176 216.774 469.08 216.72 468.998 216.679ZM484.303 211.65C484.878 211.554 485.221 211.527 485.536 211.445C492.249 209.595 498.744 207.17 504.772 203.635C508.458 201.484 511.979 199.086 514.925 195.935C516.665 194.071 518.022 192.016 518.488 189.468C518.926 187.125 517.515 185.22 514.98 185.302C513.076 185.357 511.335 185.933 509.664 186.755C506.362 188.372 503.443 190.577 500.676 192.975C494.688 198.154 489.605 204.156 484.892 210.472C484.673 210.746 484.563 211.102 484.303 211.65ZM433.717 211.417C433.786 211.513 433.868 211.609 433.937 211.705C434.992 211.404 436.047 211.102 437.088 210.787C444.103 208.718 450.789 205.923 456.914 201.895C459.791 200.004 462.518 197.962 464.792 195.346C466.148 193.784 467.286 192.085 467.697 190.043C468.231 187.454 467.56 186.07 465.546 185.467C464.737 185.234 463.792 185.316 462.942 185.453C460.517 185.837 458.38 186.974 456.325 188.248C452.529 190.619 449.2 193.551 446.007 196.661C441.65 200.908 437.869 205.649 434.197 210.486C433.991 210.76 433.882 211.116 433.717 211.417Z" fill="#C61920"/>
<path d="M476.506 109.055C476.931 108.74 477.164 108.562 477.438 108.37C477.123 107.753 476.589 107.712 476.109 107.767C473.437 108.027 471.629 106.369 469.546 104.972C470.656 104.095 472.232 104.533 473.108 103.341C472.889 102.889 472.423 102.985 472.053 102.944C470.574 102.807 469.094 102.656 467.614 102.588C466.614 102.547 465.833 102.191 465.162 101.478C464.792 101.081 464.367 100.738 463.86 100.286C465.504 99.4229 467.272 99.5736 468.875 98.9707C468.683 98.1349 468.012 98.2171 467.532 98.1349C465.696 97.8198 463.874 97.4362 462.024 97.3403C460.476 97.2581 459.818 96.2716 458.982 95.1207C461.079 94.7233 463.052 94.4493 465.038 94.1753C465.038 94.0245 465.038 93.8738 465.052 93.7094C464.696 93.5861 464.353 93.4217 463.983 93.3395C461.846 92.901 459.709 92.49 457.571 92.0378C455.913 91.6816 455.927 91.6542 454.817 90.01C455.31 89.9141 455.749 89.8045 456.174 89.7634C457.516 89.6127 458.845 89.5031 460.188 89.3524C460.613 89.2976 461.147 89.4209 461.449 88.681C461.01 88.544 460.599 88.3796 460.174 88.2837C457.968 87.7493 455.763 87.1739 453.543 86.708C452.406 86.4751 451.926 85.79 451.68 84.6665C453.831 84.1459 456.023 84.598 458.462 83.9951C457.927 83.68 457.722 83.4745 457.461 83.406C455.406 82.8168 453.365 82.1729 451.296 81.707C449.967 81.4193 449.296 80.6931 449.063 79.3093C449.391 79.2682 449.693 79.1997 449.981 79.1997C451.323 79.2134 452.68 79.2545 454.022 79.2408C454.447 79.2408 454.968 79.3915 455.31 78.6516C454.557 78.3776 453.844 78.1036 453.118 77.8707C451.611 77.4048 450.104 76.939 448.583 76.5279C447.309 76.1854 447.336 75.0756 446.857 73.9658C447.46 73.9384 447.898 73.8836 448.323 73.8973C449.254 73.9521 450.172 74.0617 451.104 74.1028C451.488 74.1165 451.858 74.048 452.241 74.0069C452.255 73.8973 452.282 73.7739 452.296 73.6643C451.789 73.3903 451.296 73.0478 450.762 72.8423C449.679 72.4449 448.583 72.0476 447.46 71.7735C446.267 71.4858 445.61 70.8008 445.432 69.6087C445.404 69.3895 445.308 69.1703 445.226 68.8415C446.747 68.4578 448.186 69.0607 449.734 68.9922C449.487 68.1838 448.898 67.9783 448.309 67.7591C447.446 67.4302 446.583 67.0329 445.692 66.8274C444.664 66.5807 444.267 65.9094 444.103 64.9777C444.034 64.5803 443.952 64.1693 443.829 63.539C445.075 63.6487 446.199 63.7583 447.405 63.8679C447.295 63.1828 446.884 62.9499 446.405 62.7718C445.665 62.4977 444.925 62.2237 444.199 61.9223C443.527 61.6483 443.02 61.2509 442.965 60.4151C442.924 59.8397 442.746 59.2779 442.609 58.5655C443.678 58.634 444.541 58.6751 445.541 58.7436C445.363 58.4421 445.281 58.2229 445.13 58.0859C444.925 57.9215 444.664 57.7571 444.404 57.7023C442.28 57.2638 441.664 55.7978 441.732 53.6467C442.376 53.6741 443.034 53.7152 443.788 53.7563C443.568 53.126 443.171 52.8246 442.623 52.6602C441.568 52.3587 441.006 51.7011 440.992 50.5502C440.992 49.961 440.828 49.3855 440.718 48.632C441.376 48.7553 441.869 48.8649 442.472 48.9882C442.404 48.2757 441.91 47.9743 441.513 47.8236C440.623 47.4811 440.362 46.8234 440.28 46.0013C440.212 45.4122 440.129 44.8093 440.047 44.1516C440.513 44.042 440.91 43.9461 441.499 43.8091C440.65 43.0418 439.526 42.6993 439.609 41.4388C439.677 40.4934 438.978 39.4247 440.225 38.6574C438.65 37.7668 439.129 36.2871 439.006 34.9991C438.978 34.7936 439.458 34.5333 439.705 34.2867C439.362 33.7386 438.869 33.1769 438.663 32.5192C438.458 31.8341 438.526 31.0531 438.485 30.2311C438.8 30.094 439.102 29.9707 439.568 29.7652C437.841 28.628 438.362 26.9427 438.129 25.3808C438.554 25.4219 438.882 25.4493 439.362 25.5041C438.855 24.7642 438.28 24.2299 438.088 23.5859C437.855 22.8186 437.951 21.9417 437.91 21.2978C438.499 20.8182 438.965 20.4483 439.581 19.9688C440.623 20.4346 442.294 20.188 442.774 21.9965C443.774 21.243 443.774 21.243 445.021 21.6951C446.637 22.2843 446.637 22.2843 447.295 23.6544C447.542 23.3667 447.747 23.1064 447.966 22.8597C450.405 23.3256 450.83 23.5859 451.762 25.3123C451.912 25.1342 452.049 24.9971 452.159 24.8464C452.255 24.7094 452.337 24.5587 452.447 24.3669C453.241 24.6683 454.05 24.819 454.68 25.2575C455.297 25.6685 455.721 26.3536 456.283 26.9975C456.475 26.7372 456.667 26.4632 456.872 26.1892C458.804 26.8194 458.612 26.3536 460.544 28.7787C460.695 28.491 460.846 28.2307 461.038 27.847C461.86 28.1759 462.668 28.491 463.49 28.8061C464.011 28.9979 464.12 29.4364 464.189 29.9022C464.271 30.4503 464.367 30.9983 465.093 31.2861C465.189 30.7928 465.258 30.3681 465.367 29.82C466.45 29.9707 467.368 30.4914 468.231 31.0394C468.491 31.2039 468.518 31.7656 468.614 32.163C468.751 32.7795 468.655 33.4646 469.45 33.9715C469.628 33.2591 469.779 32.6288 469.971 31.8067C470.861 32.2315 471.683 32.5329 472.41 32.985C472.697 33.1632 472.848 33.6701 472.93 34.0537C473.054 34.684 473.054 35.3417 473.15 35.9856C473.191 36.2734 473.328 36.5611 473.465 36.9584C474.396 36.1774 474.054 35.1224 474.369 34.3141C475.972 34.3141 477.027 35.1224 477.274 36.5611C477.411 37.3284 477.452 38.123 477.561 38.904C477.616 39.3288 477.726 39.7535 477.863 40.4797C478.822 39.0958 478.52 37.6983 479.096 36.4652C479.562 36.6981 479.945 36.9173 480.356 37.0954C481.22 37.4654 481.603 38.0956 481.644 39.041C481.685 40.1097 481.822 41.1647 481.959 42.2197C482.014 42.6582 482.165 43.0692 482.425 43.5077C483.289 42.1786 483.001 40.5482 483.741 39.0821C484.302 39.4384 484.796 39.7672 485.303 40.0686C485.7 40.3016 485.837 40.6167 485.878 41.0825C486.001 42.7404 486.179 44.3983 486.358 46.0561C486.385 46.3575 486.481 46.659 486.549 46.9604C487.248 47.0015 487.248 46.5357 487.33 46.1383C487.591 44.823 487.865 43.5077 488.166 42.0142C488.728 42.3705 489.139 42.6308 489.564 42.8911C490.03 43.1788 490.263 43.5762 490.276 44.1516C490.304 46.0013 490.358 47.851 490.413 49.7007C490.427 50.2076 490.221 50.8105 490.906 51.2626C492.016 49.4952 492.044 47.44 492.77 45.6314C494.003 45.9328 494.469 46.4124 494.51 47.5496C494.592 49.6322 494.647 51.7148 494.702 53.7974C494.715 54.2495 494.702 54.7154 494.702 55.236C495.538 55.1812 495.62 54.6195 495.77 54.0988C496.25 52.5232 496.757 50.9338 497.278 49.2485C498.305 49.7966 498.908 50.4406 498.867 51.5504C498.785 53.7289 498.73 55.9074 498.675 58.0722C498.661 58.6614 498.607 59.2642 499.292 59.8534C500.073 57.7982 500.826 55.8526 501.621 53.7974C502.566 54.5099 503.183 55.236 503.087 56.4006C502.923 58.4284 502.827 60.4699 502.662 62.4977C502.607 63.1828 502.512 63.8542 503.018 64.7311C504.101 62.8951 504.608 61.0317 505.594 59.2779C506.444 59.9082 507.101 60.6344 507.033 61.7442C506.923 63.3609 506.759 64.9777 506.595 66.5944C506.499 67.5946 506.375 68.5948 506.252 69.6909C507.499 69.4032 507.485 68.2934 507.924 67.5809C508.389 66.8137 508.759 65.9916 509.321 65.2106C510.102 66.5944 511.198 67.7591 510.678 69.5402C510.308 70.8145 510.198 72.1846 510.006 73.5136C509.951 73.9247 510.02 74.3631 510.047 75.0619C511.239 74.0754 511.458 72.8148 512.322 71.8558C512.459 72.1024 512.609 72.2942 512.692 72.5134C513.007 73.3903 513.281 74.2672 513.61 75.1304C514.103 76.4183 513.815 77.6788 513.486 78.9394C513.363 79.4189 513.116 79.8985 513.596 80.4465C513.884 80.1862 514.144 79.967 514.487 79.6655C514.596 79.9807 514.733 80.2136 514.774 80.4602C515.939 88.9825 514.582 96.8333 508.568 103.684C507.732 102.273 507.006 101.053 506.279 99.8202C503.046 94.2986 499.552 88.955 495.798 83.7759C491.811 78.2954 487.536 73.0615 482.946 68.0742C476.301 60.8536 469.053 54.318 461.106 48.5498C460.585 48.1661 460.078 47.7551 459.544 47.3988C459.352 47.2618 459.065 47.2481 458.517 47.0837C458.804 47.6592 458.914 47.9743 459.106 48.2483C462.654 53.2219 466.271 58.1544 469.765 63.1828C474.835 70.4856 479.849 77.8433 484.837 85.2009C489.016 91.3802 492.742 97.8335 496.168 104.465C496.99 106.068 497.771 107.698 498.538 109.315C498.675 109.589 498.703 109.918 498.826 110.37C491.194 113.138 483.905 112.302 476.506 109.055Z" fill="#008C44"/>
<path d="M597.519 56.8714C596.711 58.3237 596.492 58.4333 595.025 58.2689C593.696 58.1045 592.354 57.9264 591.025 57.7894C590.545 57.7346 590.024 57.6113 589.572 58.2963C591.107 59.0088 592.587 59.6802 594.162 60.4063C593.422 61.2695 592.861 61.8587 591.723 61.6258C589.915 61.2421 588.065 60.9955 586.243 60.7215C585.914 60.6667 585.572 60.7078 585.202 60.8448C586.544 62.2834 588.462 62.6945 589.983 63.7358C589.285 64.8456 588.901 65.0374 587.723 64.8045C585.667 64.4208 583.626 64.0098 581.571 63.6261C581.365 63.585 581.132 63.6261 580.817 63.6261C581.201 64.7908 582.283 64.9141 583.037 65.421C583.804 65.928 584.626 66.3527 585.517 66.8734C584.763 67.6954 584.051 68.0928 582.927 67.7777C580.927 67.2022 578.885 66.7638 576.857 66.2842C576.625 66.2294 576.351 66.3116 575.844 66.3664C577.145 67.901 578.926 68.4079 580.146 69.6547C579.214 70.5316 578.159 70.7371 576.953 70.3535C575.446 69.8877 573.925 69.4766 572.405 69.0656C572.076 68.9697 571.719 68.9971 571.13 68.9423C571.966 70.4631 573.569 70.7508 574.446 71.984C573.172 72.6827 571.939 73.1349 570.5 72.5731C569.335 72.121 568.143 71.7236 566.951 71.34C566.691 71.2578 566.39 71.3263 566.102 71.3263C566.061 71.4222 566.02 71.5318 565.979 71.6277C566.718 72.2717 567.445 72.9294 568.404 73.7651C566.897 73.9981 565.622 74.3954 564.376 74.3406C563.184 74.2858 562.019 73.7788 560.662 73.4089C560.827 73.8748 560.923 74.1762 561.06 74.5735C554.004 74.5598 547.728 72.7923 542.563 67.6406C543.138 67.1063 543.577 66.6541 544.07 66.2431C550.578 60.7763 557.47 55.8438 564.691 51.3634C571.308 47.2667 577.967 43.2385 584.64 39.2241C588.682 36.7852 592.778 34.4149 596.848 32.0171C597.177 31.8253 597.451 31.5513 597.752 31.3184C597.711 31.2088 597.67 31.0992 597.629 30.9895C597.149 31.0169 596.656 30.9895 596.19 31.0854C588.846 32.7296 581.639 34.8259 574.638 37.621C567.157 40.5942 559.936 44.1017 553.086 48.2806C548.222 51.2538 543.577 54.5559 538.823 57.7072C538.37 58.0086 537.905 58.31 537.425 58.6115C535.014 53.3501 535.89 44.5813 540.823 37.4018C541.07 37.621 541.316 37.8265 541.686 38.1553C542.111 36.8674 542.33 35.6069 542.933 34.5656C543.508 33.5517 544.481 32.757 545.468 31.6609C545.769 32.8803 546.002 33.7983 546.303 35.0314C546.646 34.5245 546.838 34.3464 546.893 34.1135C547.167 33.0858 547.454 32.0582 547.646 31.0032C547.934 29.3728 548.852 28.2767 550.496 27.4683C550.592 28.9891 550.674 30.4278 550.77 31.9897C551.578 31.6198 551.715 31.0306 551.894 30.4826C552.373 29.0302 552.812 27.5642 553.277 26.1119C553.661 24.8787 554.031 24.5362 555.538 24.0567C556.004 25.7282 555.237 27.4957 555.757 29.1399C555.894 29.1536 556.018 29.181 556.155 29.1947C556.429 28.4959 556.73 27.7971 556.991 27.0847C557.525 25.6597 558.073 24.2211 558.58 22.7824C558.895 21.8507 559.539 21.3712 560.594 21.1383C560.594 22.988 560.594 24.7554 560.594 26.5092C561.238 26.6599 561.32 26.2763 561.457 25.92C562.197 24.0704 562.923 22.2207 563.69 20.3847C564.129 19.3297 564.321 19.2338 565.787 19.1653C565.636 20.9465 565.472 22.7139 565.307 24.6595C566.061 24.2622 566.335 23.7415 566.581 23.1524C567.184 21.7 567.856 20.2751 568.486 18.8227C568.911 17.8499 569.651 17.4663 570.774 17.5348C570.856 19.2338 570.13 20.8368 570.24 22.481C570.363 22.5221 570.473 22.5632 570.596 22.6043C570.925 22.07 571.281 21.563 571.569 21.015C572.103 19.9874 572.679 18.9735 573.09 17.9048C573.569 16.6853 574.487 16.425 575.652 16.425C576.049 17.9048 574.679 19.2886 575.446 21.0972C575.857 20.3984 576.118 19.9874 576.351 19.5489C576.748 18.809 577.104 18.0555 577.501 17.3293C578.378 15.7125 578.419 15.6988 580.598 15.7947C580.338 16.9594 580.077 18.0966 579.831 19.2338C579.913 19.2886 580.009 19.3571 580.091 19.4119C580.392 19.1105 580.735 18.8501 580.968 18.5076C581.352 17.9322 581.639 17.2882 581.968 16.6853C582.818 15.1782 583.242 15.0001 585.133 15.3563C585.435 16.288 584.229 17.1649 585.023 18.3158C585.462 17.617 585.846 17.0553 586.188 16.4661C587.133 14.8494 587.764 14.5753 589.792 15.0001C589.641 15.6577 589.476 16.3291 589.312 17.069C590.12 17.0279 590.408 16.4798 590.655 15.9592C591.134 14.9453 591.86 14.5068 592.984 14.6712C593.395 14.7397 593.806 14.6849 594.286 14.6849C594.176 15.2741 594.066 15.781 593.97 16.3017C594.053 16.3565 594.121 16.4113 594.203 16.4661C594.464 16.2058 594.793 15.9729 594.971 15.6577C595.505 14.7397 596.259 14.3972 597.286 14.5479C597.642 14.6027 598.012 14.6027 598.451 14.6301C598.519 15.0412 598.588 15.4111 598.656 15.8221C598.889 15.7262 599.067 15.7125 599.122 15.6166C599.711 14.5342 600.684 14.4657 601.753 14.5342C602.726 14.6027 602.726 14.5616 603.26 15.5481C603.808 14.822 604.562 14.5068 605.425 14.6849C606.082 14.822 607.151 14.0821 607.233 15.6303C608.809 14.4931 610.275 14.4383 611.727 15.5618C613.098 14.8768 614.879 14.959 615.879 15.8084C616.824 15.0138 617.907 15.4796 618.948 15.5892C619.195 15.6166 619.4 16.1099 619.688 16.4661C620.647 15.3837 621.935 15.8359 623.113 16.014C623.428 16.5894 623.716 17.0827 624.045 17.6855C623.771 18.2062 623.579 18.9461 623.113 19.3982C622.675 19.8366 621.949 19.9737 621.181 20.3025C621.633 20.5491 621.976 20.7272 622.319 20.9191C621.757 22.1248 621.318 23.3579 619.907 23.9059C620.62 24.7965 619.825 25.372 619.592 26.0845C619.304 26.975 618.51 27.1121 617.66 27.3998C617.948 27.7149 618.14 27.9341 618.386 28.2219C617.674 29.1399 617.564 30.6333 615.865 30.7155C616.03 31.3184 616.441 31.8527 615.934 32.4282C615.509 32.9077 615.276 33.5791 614.783 33.9764C614.344 34.3327 613.7 34.4286 612.961 34.7026C613.358 34.9766 613.618 35.1685 614.016 35.4288C613.591 36.0864 613.289 36.9633 612.673 37.4018C612.084 37.8128 611.179 37.7854 610.412 37.9498C610.412 38.0594 610.412 38.1553 610.412 38.265C610.851 38.4294 611.289 38.5938 611.782 38.7856C611.549 39.2378 611.344 39.6351 611.125 40.0324C610.631 40.8956 610.001 41.4848 608.864 41.197C608.466 41.1011 608.001 41.2244 607.576 41.2519C607.562 41.3615 607.535 41.4574 607.521 41.567C608.055 41.8821 608.59 42.1835 609.11 42.4987C608.425 44.4306 607.946 44.7868 606.151 44.7731C605.74 44.7731 605.329 44.8005 604.836 44.8279C604.986 46.0473 606.082 45.6363 606.713 46.0884C606.521 46.4036 606.315 46.6776 606.151 46.9927C605.658 47.9244 604.918 48.2395 603.863 48.1573C603.068 48.1025 602.219 47.9244 601.424 48.308C601.52 49.0616 602.054 49.1027 602.547 49.226C602.986 49.3356 603.411 49.4727 603.849 49.596C603.109 51.3497 602.767 51.6101 601.177 51.569C599.931 51.5416 598.684 51.4594 597.286 51.3908C598.177 52.8021 599.794 52.5144 600.835 53.2679C600.081 54.8984 599.848 55.0491 598.136 54.9258C597.026 54.8436 595.93 54.6792 594.82 54.5833C594.436 54.5559 594.039 54.6107 593.436 54.6381C594.587 56.1041 596.354 55.9534 597.519 56.8714Z" fill="#008C44"/>
<path d="M521.272 10.6682C522.683 10.7504 522.601 11.0655 522.875 12.4767C523.355 12.6274 524.163 12.3808 524.273 13.1892C524.341 13.7099 524.204 14.2579 524.15 14.9567C524.424 14.7923 524.602 14.6826 524.766 14.5867C524.917 14.4908 525.068 14.3949 525.259 14.2716C526.04 14.6415 526.054 15.2307 525.78 15.9021C525.602 16.3405 525.41 16.7653 526.027 17.3133C526.232 16.9297 526.424 16.5597 526.602 16.2172C527.452 16.6008 527.616 16.9982 527.383 17.6558C527.178 18.2587 527.054 18.8753 526.89 19.4918C526.972 19.5466 527.054 19.6014 527.136 19.6699C527.561 19.2589 528 18.8342 528.465 18.382C528.972 18.656 529.055 19.1082 528.89 19.6425C528.753 20.081 528.561 20.5057 528.452 20.9579C528.37 21.273 528.37 21.6155 528.342 21.9444C528.438 21.9992 528.548 22.0403 528.644 22.0951C529.082 21.6155 529.507 21.136 530.055 20.5468C530.973 22.1362 529.219 23.3556 529.644 25.1094C530.315 24.3147 530.781 23.7803 531.274 23.1912C531.781 23.4789 531.809 23.8763 531.617 24.3558C531.343 25.0409 531.055 25.7259 530.795 26.4247C530.685 26.6987 530.644 27.0002 530.562 27.3838C531.699 27.4386 531.795 26.2329 532.74 25.9452C533.124 27.5893 531.754 28.7539 531.562 30.2474C532.562 30.4118 532.727 29.3979 533.466 29.2335C534.014 29.9323 533.645 30.5351 533.288 31.1791C532.946 31.8093 532.685 32.4944 532.343 33.2617C533.22 33.4261 533.508 32.7821 534.028 32.3848C534.919 33.8782 533.521 34.8784 533.302 36.2075C533.727 36.1664 534.056 36.139 534.439 36.0979C534.535 37.0021 534.604 37.879 534.165 38.7011C534.083 38.8655 533.987 39.0436 533.973 39.2218C533.782 43.25 532.124 46.415 528.959 48.7442C528.602 49.0045 528.191 49.2101 527.657 49.5389C527.493 48.8401 527.328 48.3195 527.232 47.7851C525.986 40.5782 523.821 33.6316 520.848 26.9454C519.244 23.3419 517.217 19.9714 515.134 16.6419C514.956 16.3542 514.613 16.1761 514.353 15.9432C514.257 15.9843 514.175 16.0254 514.079 16.0665C514.189 16.6145 514.285 17.1763 514.435 17.7243C516.381 25.1094 518.45 32.4807 520.245 39.9068C521.108 43.4829 521.491 47.1823 522.108 50.8953C520.491 51.2105 519.135 50.8679 517.833 50.4295C516.066 49.8403 514.38 49.0182 513.038 47.7029C511.942 46.6205 510.928 45.4422 509.64 44.0446C510.037 43.8665 510.366 43.7295 510.736 43.5651C510.092 42.2772 508.119 42.6608 508.078 40.9755C508.626 40.8522 509.16 40.7426 509.873 40.5782C508.777 39.3588 506.858 39.4684 506.434 37.7009C507.269 37.5091 507.955 38.4134 508.708 37.6735C507.913 36.3856 505.954 36.3856 505.296 34.6318C506.324 34.8099 507.091 34.9469 507.872 35.0703C507.913 34.9743 507.968 34.8784 508.009 34.7825C507.53 34.3989 507.064 34.0016 506.557 33.6453C506.146 33.3439 505.708 33.0836 505.283 32.7958C504.844 32.5218 504.639 32.1656 504.844 31.6312C505.557 31.7956 506.242 31.9601 507.05 32.1519C507.023 31.0284 506.091 30.9462 505.584 30.5077C505.077 30.0556 504.379 29.8226 504.379 28.8361C505.105 28.9869 505.749 29.1239 506.461 29.2746C506.612 28.5484 506.064 28.3977 505.694 28.0963C505.077 27.5756 504.187 27.2331 504.324 26.1233C504.858 26.1918 505.406 26.274 506.05 26.3562C505.927 25.082 504.091 25.0683 504.474 23.6159C504.954 23.6159 505.392 23.6159 506.064 23.6159C505.68 23.1638 505.433 22.8487 505.159 22.5746C504.214 21.6018 504.255 21.2182 505.42 20.5057C505.201 20.0262 504.885 19.5603 504.817 19.0671C504.776 18.7382 505.118 18.3546 505.159 18.2861C505.242 17.2174 505.242 16.3953 505.379 15.6143C505.845 12.9974 506.31 10.3667 506.886 7.77717C507.406 5.47534 508.064 3.20092 508.722 0.940197C509.023 -0.114807 509.599 -0.279223 510.448 0.433247C512.394 2.06371 514.312 3.72157 516.244 5.36573C517.08 6.0782 518.08 6.65366 518.737 7.51684C519.546 8.54445 521.108 9.01029 521.272 10.6682Z" fill="#008C44"/>
<path d="M520.858 32.4824C521.187 33.5511 521.543 34.4828 521.762 35.4556C523.132 41.4157 524.571 47.3621 525.777 53.3633C526.722 58.1313 527.27 62.9679 527.722 67.8319C528.215 73.1617 528.311 78.4778 528.147 83.8077C528.051 87.0001 527.681 90.1788 527.338 93.3575C526.955 96.9062 526.352 100.414 525.461 103.88C524.187 108.826 522.488 113.622 520.31 118.239C517.515 124.172 514.144 129.748 510.075 134.9C505.197 141.079 499.717 146.656 493.359 151.328C490.893 153.136 488.372 154.863 485.851 156.603C485.508 156.836 484.974 157.028 484.604 156.959C481.055 156.233 477.52 155.452 473.985 154.671C473.917 154.657 473.862 154.575 473.711 154.438C474.451 154.013 475.15 153.589 475.876 153.205C481.74 150.081 487.426 146.697 492.729 142.682C498.401 138.38 503.484 133.448 507.896 127.844C512.349 122.199 516.007 116.115 518.844 109.511C521.05 104.373 522.612 99.0573 523.639 93.563C524.557 88.6853 525.201 83.7666 525.461 78.8067C525.708 74.0797 525.653 69.3527 525.407 64.6258C525.078 58.1313 524.283 51.6917 523.173 45.2932C522.461 41.1417 521.584 37.0176 520.776 32.8798C520.748 32.8113 520.803 32.7153 520.858 32.4824Z" fill="#C61920"/>
<path d="M364.104 282.648C365.533 282.648 366.835 282.829 368.008 283.192C369.181 283.533 370.141 284.045 370.888 284.728C372.232 285.944 373.171 287.277 373.704 288.728C374.259 290.157 374.536 291.992 374.536 294.232C374.536 294.701 374.472 295.128 374.344 295.512C374.237 295.896 374.056 296.387 373.8 296.984C373.48 297.645 373.288 298.168 373.224 298.552C372.797 299.299 372.093 300.013 371.112 300.696C370.152 301.379 369.107 301.933 367.976 302.36C366.845 302.787 365.853 303 365 303C360.883 303 357.949 301.592 356.2 298.776C355.709 297.987 355.325 297.165 355.048 296.312C354.792 295.459 354.664 294.627 354.664 293.816C354.664 291.64 355.048 289.752 355.816 288.152C356.605 286.531 357.693 285.272 359.08 284.376C359.912 283.885 360.776 283.48 361.672 283.16C362.589 282.819 363.4 282.648 364.104 282.648ZM357.992 293.912C357.992 295.064 358.248 296.013 358.76 296.76C359.293 297.507 360.104 298.317 361.192 299.192C362.088 299.533 362.696 299.757 363.016 299.864C363.336 299.949 363.699 299.992 364.104 299.992C366.259 299.992 367.976 299.405 369.256 298.232C370.536 297.059 371.176 295.448 371.176 293.4C371.176 291.779 370.995 290.499 370.632 289.56C370.269 288.621 369.619 287.779 368.68 287.032C368.189 286.627 367.56 286.328 366.792 286.136C366.045 285.944 365.235 285.848 364.36 285.848C363.037 285.848 361.896 286.243 360.936 287.032C359.976 287.8 359.24 288.803 358.728 290.04C358.237 291.277 357.992 292.568 357.992 293.912ZM377.276 292.216C377.105 292.216 376.945 292.152 376.796 292.024C376.668 291.875 376.604 291.704 376.604 291.512C376.604 291.021 376.817 290.563 377.243 290.136C377.372 290.072 377.628 289.965 378.012 289.816C378.396 289.667 378.737 289.592 379.036 289.592C379.846 289.592 380.508 289.816 381.02 290.264C381.532 290.691 381.788 291.309 381.788 292.12C381.788 292.355 381.745 292.856 381.66 293.624C381.574 294.52 381.532 295.213 381.532 295.704C381.532 297.197 381.734 298.403 382.14 299.32C382.289 299.619 382.524 299.853 382.844 300.024C383.164 300.195 383.452 300.28 383.708 300.28C384.326 300.28 384.828 300.173 385.212 299.96C385.596 299.747 386.012 299.405 386.46 298.936C386.908 298.467 387.196 297.933 387.324 297.336C387.473 296.739 387.58 295.917 387.644 294.872C387.686 294.189 387.729 293.688 387.772 293.368C387.878 292.344 387.932 291.469 387.932 290.744C387.932 290.275 388.06 289.891 388.316 289.592C388.572 289.272 388.924 289.112 389.372 289.112C389.628 289.112 389.916 289.197 390.236 289.368C390.577 289.517 390.801 289.699 390.908 289.912C391.036 290.125 391.1 290.477 391.1 290.968C391.1 291.224 391.068 291.469 391.004 291.704C390.854 292.237 390.78 292.877 390.78 293.624L390.812 295.288C390.812 296.803 390.918 297.923 391.132 298.648C391.238 298.989 391.388 299.341 391.58 299.704C391.772 300.045 391.953 300.333 392.124 300.568C392.55 301.037 392.828 301.368 392.956 301.56C393.084 301.731 393.148 301.901 393.148 302.072C393.148 302.328 393.02 302.573 392.764 302.808C392.529 303.021 392.273 303.128 391.996 303.128C391.206 303.128 390.524 302.861 389.948 302.328C389.372 301.795 388.945 301.101 388.668 300.248C387.942 301.08 387.27 301.752 386.652 302.264C386.225 302.563 385.702 302.787 385.084 302.936C384.465 303.064 383.846 303.128 383.228 303.128C382.396 303.128 381.553 302.787 380.7 302.104C379.846 301.421 379.27 300.632 378.972 299.736C378.95 299.693 378.886 299.523 378.78 299.224C378.694 298.925 378.652 298.477 378.652 297.88C378.652 297.091 378.694 296.099 378.78 294.904C378.844 294.136 378.876 293.432 378.876 292.792C378.876 292.6 378.801 292.44 378.652 292.312C378.524 292.184 378.374 292.12 378.204 292.12C378.076 292.12 377.926 292.141 377.756 292.184C377.606 292.205 377.446 292.216 377.276 292.216ZM395.571 291.928C395.272 291.885 395.027 291.757 394.835 291.544C394.664 291.331 394.579 291.075 394.579 290.776C394.579 290.627 394.611 290.467 394.675 290.296C394.76 290.125 394.878 289.976 395.027 289.848C395.304 289.571 396.051 289.432 397.267 289.432C397.438 288.6 397.523 287.757 397.523 286.904C397.523 286.584 397.512 286.307 397.491 286.072C397.47 285.837 397.459 285.656 397.459 285.528C397.459 285.059 397.63 284.707 397.971 284.472C398.334 284.237 398.739 284.12 399.187 284.12C399.742 284.12 400.115 284.259 400.307 284.536C400.52 284.813 400.627 285.325 400.627 286.072C400.627 287.181 400.531 288.269 400.339 289.336C400.68 289.336 401.15 289.315 401.747 289.272C402.558 289.229 403.144 289.208 403.507 289.208C403.87 289.208 404.179 289.304 404.435 289.496C404.712 289.667 404.851 289.912 404.851 290.232C404.851 291.064 404.478 291.555 403.731 291.704C402.942 291.896 401.715 292.013 400.051 292.056C399.987 292.888 399.955 293.795 399.955 294.776C399.955 296.312 400.051 297.571 400.243 298.552C400.371 299.235 400.584 299.736 400.883 300.056C401.203 300.355 401.672 300.504 402.291 300.504C402.654 300.504 403.027 300.408 403.411 300.216C403.667 300.067 403.902 299.992 404.115 299.992C404.414 299.992 404.627 300.088 404.755 300.28C404.904 300.472 404.979 300.728 404.979 301.048C404.979 301.645 404.659 302.147 404.019 302.552C403.379 302.936 402.558 303.128 401.555 303.128C400.936 303.128 400.307 302.979 399.667 302.68C399.048 302.381 398.526 302.008 398.099 301.56C398.035 301.496 397.918 301.251 397.747 300.824C397.576 300.397 397.427 299.939 397.299 299.448C397.086 298.445 396.979 297.037 396.979 295.224C396.979 294.435 397.022 293.379 397.107 292.056L395.571 291.928ZM416.978 286.328C416.68 286.328 416.392 286.253 416.114 286.104C415.837 285.955 415.645 285.731 415.538 285.432C415.325 284.856 415.09 284.451 414.834 284.216C414.6 283.96 414.312 283.832 413.97 283.832C413.757 283.832 413.554 283.992 413.362 284.312C413.192 284.632 413.064 285.133 412.978 285.816C412.829 287.224 412.754 288.301 412.754 289.048C413.074 289.112 413.522 289.144 414.098 289.144C414.397 289.144 414.781 289.123 415.25 289.08L416.114 289.048C416.498 289.048 416.797 289.123 417.01 289.272C417.224 289.421 417.33 289.667 417.33 290.008C417.33 290.499 417.181 290.904 416.882 291.224C416.584 291.544 416.232 291.704 415.826 291.704C414.29 291.704 413.256 291.779 412.722 291.928C412.722 293.208 412.786 295.043 412.914 297.432C412.914 297.795 412.936 298.317 412.978 299L413.106 301.464C413.149 302.083 413.085 302.52 412.914 302.776C412.765 303.011 412.434 303.128 411.922 303.128C410.984 303.128 410.376 302.563 410.098 301.432C409.928 300.621 409.789 299.469 409.682 297.976C409.597 296.461 409.554 295.128 409.554 293.976C409.554 293.379 409.586 292.685 409.65 291.896C409.608 291.875 409.49 291.864 409.298 291.864C409.106 291.864 408.968 291.875 408.882 291.896C408.242 291.939 407.773 291.96 407.474 291.96C407.282 291.96 407.09 291.821 406.898 291.544C406.706 291.267 406.61 290.947 406.61 290.584C406.61 290.371 406.685 290.179 406.834 290.008C406.984 289.816 407.165 289.677 407.378 289.592C407.698 289.421 408.157 289.336 408.754 289.336H409.714C409.714 286.349 410.045 284.269 410.706 283.096C411.346 281.987 412.402 281.432 413.874 281.432C414.557 281.432 415.208 281.571 415.826 281.848C416.466 282.125 416.978 282.509 417.362 283C417.768 283.491 417.97 284.045 417.97 284.664C417.97 285.325 417.885 285.773 417.714 286.008C417.544 286.221 417.298 286.328 416.978 286.328ZM421.362 282.456C422.109 282.52 422.76 282.723 423.314 283.064C423.869 283.384 424.146 283.875 424.146 284.536C424.146 285.027 423.912 285.421 423.442 285.72C422.994 285.997 422.45 286.136 421.81 286.136C421.192 286.136 420.754 285.976 420.498 285.656C420.264 285.336 420.146 285.005 420.146 284.664C420.146 284.045 420.221 283.523 420.37 283.096C420.52 282.648 420.85 282.435 421.362 282.456ZM423.89 296.632V297.56C423.89 298.243 423.912 298.915 423.954 299.576C424.018 300.216 424.082 300.835 424.146 301.432C424.146 301.56 424.168 301.795 424.21 302.136C424.189 302.349 424.029 302.573 423.73 302.808C423.432 303.021 423.165 303.128 422.93 303.128C422.525 303.128 422.109 303.053 421.682 302.904C421.277 302.733 421.032 302.531 420.946 302.296C420.818 301.613 420.754 301.005 420.754 300.472C420.754 298.723 420.701 296.76 420.594 294.584L420.53 293.368C420.509 293.048 420.488 292.653 420.466 292.184C420.445 291.715 420.434 291.16 420.434 290.52C420.434 290.136 420.626 289.805 421.01 289.528C421.416 289.251 421.832 289.112 422.258 289.112C422.877 289.112 423.304 289.251 423.538 289.528C423.794 289.805 423.922 290.243 423.922 290.84L423.89 296.632ZM427.915 291.864C427.616 291.821 427.371 291.704 427.179 291.512C427.008 291.299 426.923 291.043 426.923 290.744C426.923 290.36 427.072 290.04 427.371 289.784C427.435 289.72 427.541 289.667 427.691 289.624C427.84 289.56 427.957 289.507 428.043 289.464C428.512 289.315 428.811 289.197 428.939 289.112C429.429 288.813 429.76 288.323 429.931 287.64C430.101 286.829 430.208 286.275 430.251 285.976C430.293 285.507 430.443 285.155 430.699 284.92C430.976 284.664 431.317 284.536 431.723 284.536C432.256 284.536 432.629 284.675 432.843 284.952C433.056 285.229 433.163 285.741 433.163 286.488C433.163 287.469 432.928 288.397 432.459 289.272C432.757 289.272 433.248 289.251 433.931 289.208C434.955 289.165 435.669 289.144 436.075 289.144C436.437 289.144 436.747 289.24 437.003 289.432C437.28 289.603 437.419 289.859 437.419 290.2C437.419 291.011 437.045 291.491 436.299 291.64C435.616 291.832 434.379 291.949 432.587 291.992C432.437 294.083 432.363 295.736 432.363 296.952C432.363 297.699 432.395 298.232 432.459 298.552C432.587 299.213 432.8 299.704 433.099 300.024C433.419 300.323 433.888 300.472 434.507 300.472C434.805 300.472 435.253 300.397 435.851 300.248C436.213 300.141 436.501 300.088 436.715 300.088C436.992 300.088 437.205 300.184 437.355 300.376C437.504 300.568 437.579 300.824 437.579 301.144C437.579 301.72 437.205 302.2 436.459 302.584C435.712 302.947 434.827 303.128 433.803 303.128C433.163 303.128 432.533 302.979 431.915 302.68C431.296 302.36 430.773 301.976 430.347 301.528C430.261 301.485 430.133 301.251 429.963 300.824C429.813 300.397 429.664 299.928 429.515 299.416C429.451 299.16 429.419 298.541 429.419 297.56C429.419 296.621 429.483 295 429.611 292.696L429.643 291.992C429.493 291.992 429.216 291.981 428.811 291.96C428.405 291.917 428.107 291.885 427.915 291.864ZM462.047 297.208C462.047 298.211 461.812 299.075 461.343 299.8C460.895 300.504 460.148 301.155 459.103 301.752C458.399 302.179 457.578 302.499 456.639 302.712C455.7 302.925 454.751 303.032 453.791 303.032C452.81 303.032 451.594 302.712 450.143 302.072C449.098 301.56 448.266 300.952 447.647 300.248C447.05 299.544 446.751 298.776 446.751 297.944C446.751 297.368 446.879 296.952 447.135 296.696C447.391 296.419 447.807 296.28 448.383 296.28C448.682 296.28 448.991 296.408 449.311 296.664C449.631 296.899 449.823 297.133 449.887 297.368C450.186 298.243 450.708 298.915 451.455 299.384C452.202 299.832 453.13 300.056 454.239 300.056C455.519 300.056 456.586 299.821 457.439 299.352C458.314 298.883 458.751 298.253 458.751 297.464C458.751 296.696 458.282 296.013 457.343 295.416C456.404 294.819 455.444 294.403 454.463 294.168C453.055 293.784 451.807 293.325 450.719 292.792C449.588 292.237 448.746 291.555 448.191 290.744C447.636 289.933 447.359 289.08 447.359 288.184C447.359 287.352 447.647 286.509 448.223 285.656C448.799 284.781 449.482 284.152 450.271 283.768C450.698 283.555 451.423 283.331 452.447 283.096C453.492 282.84 454.25 282.712 454.719 282.712C455.338 282.712 456.02 282.787 456.767 282.936C457.514 283.085 458.122 283.299 458.591 283.576C459.53 284.109 460.223 284.589 460.671 285.016C461.119 285.443 461.343 285.976 461.343 286.616C461.343 287 461.194 287.341 460.895 287.64C460.618 287.939 460.127 288.088 459.423 288.088C459.252 288.088 459.082 288.013 458.911 287.864C458.74 287.715 458.527 287.491 458.271 287.192C457.93 286.744 457.599 286.445 457.279 286.296C456.959 286.189 456.49 286.072 455.871 285.944C455.274 285.816 454.74 285.752 454.271 285.752C453.759 285.752 453.226 285.859 452.671 286.072C452.116 286.285 451.647 286.595 451.263 287C450.9 287.384 450.719 287.832 450.719 288.344C450.719 288.771 450.911 289.144 451.295 289.464C451.7 289.763 452.18 290.008 452.735 290.2C453.375 290.456 454.068 290.68 454.815 290.872C455.796 291.171 456.596 291.448 457.215 291.704C457.855 291.939 458.474 292.237 459.071 292.6C460.116 293.219 460.874 293.859 461.343 294.52C461.812 295.16 462.047 296.056 462.047 297.208ZM465.776 291.864C465.584 291.864 465.402 291.885 465.232 291.928C465.061 291.949 464.89 291.96 464.72 291.96C464.485 291.96 464.261 291.853 464.048 291.64C463.856 291.427 463.76 291.235 463.76 291.064C463.76 290.509 464.037 290.083 464.592 289.784C465.146 289.464 465.712 289.304 466.288 289.304C466.778 289.304 467.28 289.475 467.792 289.816C468.325 290.136 468.72 290.552 468.976 291.064C469.53 290.403 470.213 289.923 471.024 289.624C471.834 289.325 472.677 289.176 473.552 289.176C474.533 289.176 475.44 289.485 476.272 290.104C477.125 290.723 477.797 291.512 478.288 292.472C478.778 293.411 479.024 294.349 479.024 295.288C479.024 296.205 478.928 297.027 478.736 297.752C478.544 298.456 478.202 299.171 477.712 299.896C477.157 300.664 476.41 301.293 475.472 301.784C474.554 302.275 473.456 302.52 472.176 302.52C471.834 302.52 471.418 302.435 470.928 302.264C470.437 302.072 470.032 301.869 469.712 301.656C469.562 303.107 469.488 304.365 469.488 305.432C469.488 306.072 469.52 306.68 469.584 307.256C469.626 307.939 469.648 308.429 469.648 308.728C469.648 309.197 469.488 309.539 469.168 309.752C468.848 309.987 468.496 310.104 468.112 310.104C467.344 310.104 466.832 309.891 466.576 309.464C466.341 309.059 466.224 308.472 466.224 307.704C466.309 305.869 466.416 304.173 466.544 302.616C466.672 300.696 466.736 297.731 466.736 293.72C466.736 293.336 466.661 292.931 466.512 292.504C466.362 292.077 466.117 291.864 465.776 291.864ZM469.84 298.488C469.946 298.893 470.245 299.235 470.736 299.512C471.248 299.768 471.706 299.896 472.112 299.896C473.328 299.896 474.234 299.565 474.832 298.904C475.28 298.435 475.568 297.976 475.696 297.528C475.845 297.08 475.92 296.365 475.92 295.384C475.92 294.616 475.77 293.976 475.472 293.464C475.173 292.931 474.81 292.547 474.384 292.312C473.957 292.056 473.552 291.928 473.168 291.928C472.293 291.928 471.578 292.195 471.024 292.728C470.49 293.24 470.149 293.944 470 294.84C469.893 295.544 469.84 296.76 469.84 298.488ZM481.721 296.216C481.721 295.405 481.871 294.595 482.169 293.784C482.468 292.952 482.863 292.195 483.353 291.512C483.844 290.829 484.623 290.275 485.689 289.848C486.756 289.4 487.705 289.176 488.537 289.176C489.391 289.176 490.255 289.293 491.129 289.528C492.025 289.763 492.644 290.125 492.985 290.616C493.775 291.725 494.169 292.813 494.169 293.88C494.169 294.456 494.041 294.947 493.785 295.352C493.551 295.757 493.209 296.195 492.761 296.664C492.399 297.048 491.823 297.304 491.033 297.432C490.265 297.56 489.497 297.624 488.729 297.624C488.239 297.624 487.641 297.581 486.937 297.496C486.233 297.389 485.551 297.261 484.889 297.112C484.932 297.539 485.039 297.955 485.209 298.36C485.38 298.765 485.583 299.075 485.817 299.288C486.244 299.693 486.681 299.949 487.129 300.056C487.599 300.163 488.196 300.216 488.921 300.216C489.689 300.216 490.404 300.088 491.065 299.832C491.599 299.64 492.036 299.544 492.377 299.544C492.783 299.544 493.092 299.672 493.305 299.928C493.519 300.163 493.625 300.472 493.625 300.856C493.625 301.389 493.316 301.827 492.697 302.168C492.079 302.509 491.364 302.765 490.553 302.936C489.764 303.085 489.124 303.16 488.633 303.16C487.631 303.16 486.66 302.979 485.721 302.616C484.783 302.253 484.004 301.741 483.385 301.08C482.873 300.483 482.468 299.768 482.169 298.936C481.871 298.083 481.721 297.176 481.721 296.216ZM488.697 291.896C488.228 291.896 487.759 291.992 487.289 292.184C486.82 292.355 486.436 292.6 486.137 292.92C485.753 293.325 485.487 293.656 485.337 293.912C485.209 294.147 485.124 294.477 485.081 294.904C485.615 295.075 486.724 295.16 488.409 295.16C489.327 295.16 490.031 295.021 490.521 294.744C491.033 294.467 491.289 294.104 491.289 293.656C491.289 293.208 491.012 292.803 490.457 292.44C489.903 292.077 489.316 291.896 488.697 291.896ZM509.387 303.128C508.662 303.128 508.107 303.021 507.723 302.808C507.339 302.573 506.923 302.147 506.475 301.528C505.921 302.019 505.089 302.413 503.979 302.712C502.891 303.011 501.953 303.16 501.163 303.16C499.862 303.16 498.806 302.808 497.995 302.104C497.206 301.379 496.811 300.323 496.811 298.936C496.811 298.339 496.971 297.795 497.291 297.304C497.633 296.792 498.07 296.344 498.603 295.96C499.201 295.555 499.905 295.235 500.715 295C501.547 294.765 502.305 294.648 502.987 294.648C504.139 294.648 505.163 294.755 506.059 294.968V294.936C506.059 293.784 505.771 292.995 505.195 292.568C504.641 292.12 503.745 291.896 502.507 291.896C501.718 291.896 501.035 292.248 500.459 292.952C500.246 293.229 499.798 293.368 499.115 293.368C498.774 293.368 498.518 293.229 498.347 292.952C498.198 292.653 498.123 292.355 498.123 292.056C498.123 291.437 498.379 290.904 498.891 290.456C499.425 290.008 500.065 289.677 500.811 289.464C501.558 289.229 502.251 289.112 502.891 289.112C503.51 289.112 504.246 289.24 505.099 289.496C505.953 289.752 506.646 290.093 507.179 290.52C507.819 291.075 508.31 291.725 508.651 292.472C509.014 293.197 509.195 293.997 509.195 294.872C509.195 295.149 509.174 295.565 509.131 296.12C509.089 296.76 509.067 297.283 509.067 297.688C509.067 297.88 509.046 298.125 509.003 298.424C508.961 298.808 508.939 299.128 508.939 299.384C508.939 299.661 509.025 299.928 509.195 300.184C509.366 300.44 509.601 300.653 509.899 300.824C510.177 300.973 510.358 301.133 510.443 301.304C510.529 301.475 510.571 301.667 510.571 301.88C510.571 302.093 510.433 302.36 510.155 302.68C509.899 302.979 509.643 303.128 509.387 303.128ZM502.987 297.016C502.155 297.016 501.419 297.176 500.779 297.496C500.139 297.816 499.819 298.381 499.819 299.192C499.819 299.597 499.958 299.939 500.235 300.216C500.534 300.493 500.854 300.632 501.195 300.632C502.113 300.632 502.881 300.536 503.499 300.344C504.118 300.152 504.865 299.8 505.739 299.288C505.846 298.947 505.91 298.467 505.931 297.848C505.931 297.613 505.942 297.432 505.963 297.304C504.811 297.112 503.819 297.016 502.987 297.016ZM515.441 303.128C515.015 303.128 514.652 303.053 514.353 302.904C514.055 302.755 513.873 302.595 513.809 302.424C513.575 301.571 513.457 300.451 513.457 299.064C513.457 296.504 513.5 294.424 513.585 292.824C513.671 290.925 513.713 289.101 513.713 287.352C513.713 286.84 513.649 286.093 513.521 285.112C513.5 284.941 513.468 284.632 513.425 284.184C513.383 283.736 513.361 283.32 513.361 282.936C513.361 282.467 513.521 282.093 513.841 281.816C514.183 281.539 514.62 281.4 515.153 281.4C515.58 281.4 515.921 281.539 516.177 281.816C516.455 282.072 516.593 282.424 516.593 282.872C516.593 283.555 516.615 284.515 516.657 285.752C516.7 286.904 516.721 287.768 516.721 288.344C516.721 288.984 516.7 289.837 516.657 290.904C516.615 291.544 516.593 292.013 516.593 292.312C516.593 293.251 516.604 294.029 516.625 294.648C517.415 293.859 518.449 292.931 519.729 291.864C521.009 290.797 522.001 290.051 522.705 289.624C523.452 289.176 523.943 288.952 524.177 288.952C524.625 288.952 525.009 289.048 525.329 289.24C525.649 289.432 525.809 289.709 525.809 290.072C525.809 290.435 525.756 290.723 525.649 290.936C525.543 291.149 525.351 291.363 525.073 291.576L520.945 294.584C521.415 294.819 521.809 295.117 522.129 295.48C522.471 295.843 522.812 296.291 523.153 296.824C523.879 298.019 524.455 298.893 524.881 299.448C525.329 300.003 525.735 300.28 526.097 300.28L526.897 300.248C527.047 300.248 527.175 300.333 527.281 300.504C527.409 300.675 527.473 300.92 527.473 301.24C527.473 301.731 527.228 302.125 526.737 302.424C526.268 302.723 525.735 302.872 525.137 302.872C524.305 302.872 523.569 302.552 522.929 301.912C522.289 301.251 521.681 300.365 521.105 299.256C520.273 297.677 519.452 296.739 518.641 296.44L516.593 298.104L516.721 301.592C516.721 302.147 516.572 302.541 516.273 302.776C515.996 303.011 515.719 303.128 515.441 303.128ZM538.469 296.088C538.639 296.195 538.97 296.397 539.461 296.696C539.973 296.973 540.314 297.304 540.485 297.688C540.655 298.072 540.741 298.605 540.741 299.288C540.741 300.056 540.517 300.739 540.069 301.336C539.621 301.912 539.045 302.36 538.341 302.68C537.85 302.893 537.317 303.021 536.741 303.064C536.186 303.107 535.514 303.128 534.725 303.128C534.298 303.128 533.743 303.064 533.061 302.936C532.399 302.808 531.941 302.691 531.685 302.584C531.002 302.2 530.426 301.752 529.957 301.24C529.487 300.728 529.253 300.205 529.253 299.672C529.253 299.245 529.391 298.904 529.669 298.648C529.946 298.392 530.309 298.264 530.757 298.264C530.991 298.264 531.215 298.328 531.429 298.456C531.663 298.563 531.823 298.691 531.909 298.84C532.143 299.395 532.538 299.811 533.093 300.088C533.647 300.365 534.213 300.504 534.789 300.504C536.815 300.504 537.829 300.141 537.829 299.416C537.829 299.224 537.775 299.075 537.669 298.968C537.583 298.84 537.455 298.712 537.285 298.584C537.007 298.392 536.613 298.189 536.101 297.976C535.61 297.763 535.173 297.603 534.789 297.496C533.914 297.304 533.061 297.016 532.229 296.632C531.461 296.248 530.831 295.747 530.341 295.128C529.85 294.488 529.605 293.709 529.605 292.792C529.605 292.237 529.807 291.693 530.213 291.16C530.639 290.605 531.13 290.189 531.685 289.912C532.069 289.763 532.698 289.603 533.573 289.432C534.447 289.261 535.045 289.176 535.365 289.176C535.855 289.176 536.389 289.229 536.965 289.336C537.541 289.421 537.978 289.571 538.277 289.784C538.853 290.125 539.322 290.488 539.685 290.872C540.047 291.235 540.229 291.651 540.229 292.12C540.229 292.355 540.175 292.611 540.069 292.888C539.962 293.144 539.834 293.304 539.685 293.368C539.365 293.517 538.991 293.592 538.565 293.592C538.373 293.592 538.213 293.539 538.085 293.432C537.978 293.325 537.829 293.155 537.637 292.92C537.402 292.557 537.178 292.344 536.965 292.28C536.709 292.216 536.335 292.141 535.845 292.056C535.354 291.949 535.023 291.896 534.853 291.896C534.319 291.896 533.807 292.003 533.317 292.216C532.847 292.429 532.613 292.717 532.613 293.08C532.613 293.507 532.965 293.869 533.669 294.168C534.117 294.381 534.607 294.563 535.141 294.712C535.695 294.861 536.037 294.957 536.165 295C536.463 295.064 536.847 295.213 537.317 295.448C537.807 295.683 538.191 295.896 538.469 296.088ZM559.458 295.768C558.626 295.768 557.922 295.747 557.346 295.704C556.791 295.64 556.055 295.544 555.138 295.416L555.106 298.776C555.085 299.352 555.074 300.173 555.074 301.24C555.074 301.795 554.914 302.232 554.594 302.552C554.295 302.851 553.954 303 553.57 303C552.866 303 552.343 302.915 552.002 302.744C551.661 302.552 551.49 302.221 551.49 301.752C551.49 301.133 551.543 300.259 551.65 299.128C551.885 296.696 552.002 294.2 552.002 291.64C552.002 289.251 551.927 287 551.778 284.888C551.799 284.589 551.949 284.248 552.226 283.864C552.525 283.48 552.898 283.267 553.346 283.224C553.837 283.224 554.615 283.139 555.682 282.968C556.791 282.797 557.634 282.712 558.21 282.712C559.959 282.712 561.314 282.883 562.274 283.224C563.255 283.565 564.237 284.131 565.218 284.92C566.285 286.584 566.818 287.757 566.818 288.44C566.818 289.869 566.53 291.139 565.954 292.248C565.378 293.357 564.535 294.221 563.426 294.84C562.317 295.459 560.994 295.768 559.458 295.768ZM558.722 285.432C558.039 285.432 557.442 285.475 556.93 285.56C556.439 285.624 555.842 285.741 555.138 285.912C555.223 287.875 555.266 289.304 555.266 290.2C555.266 291.117 555.234 291.885 555.17 292.504C556.087 292.696 556.813 292.824 557.346 292.888C557.879 292.931 558.477 292.952 559.138 292.952C560.717 292.952 561.826 292.547 562.466 291.736C563.127 290.904 563.458 289.944 563.458 288.856C563.458 288.536 563.362 288.141 563.17 287.672C562.978 287.203 562.807 286.893 562.658 286.744C562.082 286.232 561.517 285.891 560.962 285.72C560.429 285.528 559.682 285.432 558.722 285.432ZM568.971 295.768C568.971 295 569.11 294.285 569.387 293.624C569.665 292.941 570.07 292.237 570.603 291.512C571.137 290.787 571.873 290.221 572.811 289.816C573.75 289.389 574.774 289.176 575.883 289.176C576.737 289.176 577.558 289.357 578.347 289.72C579.158 290.061 579.883 290.488 580.523 291C580.609 291.149 580.758 291.427 580.971 291.832C581.185 292.216 581.334 292.568 581.419 292.888C581.526 293.208 581.579 293.539 581.579 293.88C581.579 295.309 581.057 296.269 580.011 296.76C578.966 297.229 577.643 297.464 576.043 297.464C574.443 297.464 573.142 297.357 572.139 297.144C572.182 297.549 572.289 297.955 572.459 298.36C572.63 298.765 572.833 299.075 573.067 299.288C573.494 299.693 573.91 299.96 574.315 300.088C574.742 300.195 575.307 300.248 576.011 300.248C577.078 300.248 577.91 300.045 578.507 299.64C579.062 299.277 579.489 299.096 579.787 299.096C580.193 299.096 580.502 299.224 580.715 299.48C580.929 299.715 581.035 300.024 581.035 300.408C581.035 301.219 580.513 301.88 579.467 302.392C578.443 302.904 577.281 303.16 575.979 303.16C574.955 303.16 573.942 302.979 572.939 302.616C571.937 302.253 571.137 301.741 570.539 301.08C570.134 300.397 569.771 299.565 569.451 298.584C569.131 297.603 568.971 296.664 568.971 295.768ZM576.011 291.8C575.542 291.8 575.051 291.885 574.539 292.056C574.049 292.205 573.665 292.44 573.387 292.76C573.046 293.123 572.79 293.453 572.619 293.752C572.47 294.051 572.374 294.424 572.331 294.872C572.566 294.872 572.79 294.883 573.003 294.904C573.217 294.925 573.419 294.947 573.611 294.968C574.55 295.053 575.254 295.096 575.723 295.096C576.662 295.096 577.377 294.957 577.867 294.68C578.379 294.403 578.635 294.029 578.635 293.56C578.635 293.112 578.347 292.707 577.771 292.344C577.217 291.981 576.63 291.8 576.011 291.8ZM589.113 301.72C589.07 302.083 588.921 302.403 588.665 302.68C588.409 302.957 588.078 303.096 587.673 303.096C587.033 303.096 586.563 302.979 586.265 302.744C585.966 302.488 585.817 302.029 585.817 301.368C585.817 300.472 585.87 299.491 585.977 298.424C586.062 297.187 586.105 296.237 586.105 295.576C586.105 295.235 586.083 294.808 586.041 294.296C585.998 293.827 585.977 293.475 585.977 293.24C585.913 292.877 585.763 292.589 585.529 292.376C585.315 292.163 584.974 291.981 584.505 291.832C584.313 291.747 584.153 291.608 584.025 291.416C583.897 291.203 583.833 291.011 583.833 290.84C583.833 290.349 584.025 289.976 584.409 289.72C584.793 289.464 585.262 289.336 585.817 289.336C586.435 289.336 586.969 289.549 587.417 289.976C587.865 290.403 588.206 290.936 588.441 291.576C588.931 290.872 589.529 290.307 590.233 289.88C590.958 289.453 591.662 289.24 592.345 289.24C593.219 289.24 593.955 289.389 594.553 289.688C595.171 289.965 595.481 290.456 595.481 291.16C595.481 291.565 595.299 291.992 594.937 292.44C594.595 292.867 594.243 293.08 593.881 293.08C593.603 293.08 593.273 292.952 592.889 292.696C592.739 292.589 592.569 292.504 592.377 292.44C592.206 292.355 592.025 292.312 591.833 292.312C591.491 292.312 591.171 292.365 590.873 292.472C590.574 292.579 590.371 292.707 590.265 292.856C589.923 293.389 589.667 293.869 589.497 294.296C589.347 294.723 589.273 295.181 589.273 295.672C589.273 296.035 589.262 296.323 589.241 296.536L589.209 298.36L589.241 299.576C589.241 300.472 589.198 301.187 589.113 301.72ZM606.344 295.8C606.514 295.907 606.845 296.109 607.336 296.408C607.848 296.685 608.189 297.016 608.36 297.4C608.53 297.784 608.616 298.317 608.616 299C608.616 299.768 608.392 300.451 607.944 301.048C607.496 301.624 606.92 302.072 606.216 302.392C605.704 302.627 605.074 302.808 604.328 302.936C603.602 303.064 603.026 303.128 602.6 303.128C602.173 303.128 601.618 303.064 600.936 302.936C600.274 302.808 599.816 302.691 599.56 302.584C598.898 302.2 598.322 301.731 597.832 301.176C597.362 300.621 597.128 300.056 597.128 299.48C597.128 299.053 597.266 298.723 597.544 298.488C597.821 298.232 598.184 298.104 598.632 298.104C598.845 298.104 599.069 298.189 599.304 298.36C599.538 298.509 599.698 298.669 599.784 298.84C600.018 299.395 600.413 299.811 600.968 300.088C601.522 300.365 602.088 300.504 602.664 300.504C603.41 300.504 604.104 300.387 604.744 300.152C605.384 299.896 605.704 299.555 605.704 299.128C605.704 298.936 605.65 298.787 605.544 298.68C605.458 298.552 605.33 298.424 605.16 298.296C604.861 298.083 604.413 297.912 603.816 297.784C603.218 297.635 602.834 297.539 602.664 297.496C601.789 297.304 600.936 297.016 600.104 296.632C599.272 296.227 598.61 295.747 598.12 295.192C597.629 294.637 597.384 293.923 597.384 293.048C597.384 292.472 597.597 291.875 598.024 291.256C598.45 290.616 598.93 290.168 599.464 289.912C599.848 289.763 600.488 289.603 601.384 289.432C602.301 289.261 602.92 289.176 603.24 289.176C603.73 289.176 604.264 289.229 604.84 289.336C605.416 289.421 605.853 289.571 606.152 289.784C606.728 290.125 607.197 290.488 607.56 290.872C607.922 291.235 608.104 291.651 608.104 292.12C608.104 292.355 608.05 292.611 607.944 292.888C607.837 293.144 607.709 293.304 607.56 293.368C607.24 293.517 606.866 293.592 606.44 293.592C606.248 293.592 606.088 293.539 605.96 293.432C605.853 293.325 605.704 293.155 605.512 292.92C605.277 292.557 605.053 292.344 604.84 292.28C604.584 292.216 604.21 292.141 603.72 292.056C603.229 291.949 602.898 291.896 602.728 291.896C602.237 291.896 601.725 292.035 601.192 292.312C600.68 292.589 600.424 292.909 600.424 293.272C600.424 293.464 600.498 293.613 600.648 293.72C600.818 293.827 600.989 293.923 601.16 294.008C601.352 294.093 601.48 294.147 601.544 294.168C601.992 294.381 602.482 294.563 603.016 294.712C603.57 294.861 603.912 294.957 604.04 295C605.192 295.277 605.96 295.544 606.344 295.8ZM624.306 292.728C624.476 293.027 624.615 293.464 624.722 294.04C624.828 294.595 624.882 295.096 624.882 295.544C624.882 296.376 624.7 297.56 624.338 299.096C622.866 301.784 620.69 303.128 617.81 303.128C616.743 303.128 615.655 302.776 614.546 302.072C613.436 301.368 612.668 300.557 612.242 299.64C611.666 297.805 611.378 296.643 611.378 296.152C611.378 295.299 611.559 294.392 611.922 293.432C612.306 292.472 612.786 291.64 613.362 290.936C613.724 290.445 614.375 290.029 615.314 289.688C616.252 289.325 617.106 289.144 617.874 289.144C619.367 289.144 620.636 289.432 621.682 290.008C622.727 290.563 623.602 291.469 624.306 292.728ZM621.522 297.88C621.628 297.603 621.682 296.888 621.682 295.736C621.682 295.117 621.564 294.509 621.33 293.912C621.116 293.315 620.796 292.803 620.37 292.376C620.327 292.333 620.21 292.269 620.018 292.184C619.826 292.077 619.559 291.981 619.218 291.896C618.898 291.789 618.524 291.736 618.098 291.736C616.903 291.736 616.028 292.216 615.474 293.176C614.919 294.136 614.641 295.224 614.641 296.44C614.641 296.653 614.695 297.059 614.802 297.656C614.93 298.253 615.036 298.627 615.122 298.776C615.186 298.925 615.346 299.139 615.602 299.416C615.879 299.672 616.21 299.907 616.594 300.12C616.999 300.312 617.415 300.408 617.842 300.408C618.802 300.408 619.57 300.184 620.146 299.736C620.722 299.267 621.18 298.648 621.522 297.88ZM627.753 291.736C627.582 291.608 627.443 291.48 627.337 291.352C627.23 291.203 627.177 290.947 627.177 290.584C627.177 290.179 627.315 289.869 627.593 289.656C627.891 289.421 628.233 289.304 628.617 289.304C629.363 289.304 630.003 289.496 630.536 289.88C631.091 290.264 631.497 290.797 631.753 291.48C632.222 290.605 632.819 290.008 633.545 289.688C634.27 289.347 635.273 289.176 636.553 289.176C637.065 289.176 637.587 289.336 638.121 289.656C638.675 289.955 639.177 290.328 639.625 290.776C639.987 291.245 640.297 291.832 640.553 292.536C640.809 293.219 640.937 293.837 640.937 294.392C640.937 294.712 640.915 295.235 640.873 295.96C640.83 296.728 640.809 297.336 640.809 297.784C640.809 299.277 641.097 300.195 641.673 300.536C641.758 300.579 641.918 300.632 642.153 300.696C642.387 300.76 642.558 300.824 642.665 300.888C642.793 300.952 642.857 301.048 642.857 301.176C642.878 301.688 642.686 302.115 642.281 302.456C641.897 302.776 641.427 302.936 640.873 302.936C640.041 302.936 639.39 302.712 638.921 302.264C638.451 301.816 638.121 301.133 637.929 300.216C637.822 299.875 637.769 299.373 637.769 298.712C637.769 298.349 637.79 297.763 637.833 296.952C637.897 296.312 637.929 295.629 637.929 294.904C637.929 294.157 637.715 293.507 637.289 292.952C636.862 292.376 636.275 292.088 635.529 292.088C635.081 292.088 634.611 292.227 634.121 292.504C633.63 292.76 633.289 293.08 633.097 293.464C632.777 294.125 632.563 294.797 632.457 295.48C632.201 296.803 632.073 298.072 632.073 299.288C632.073 299.587 632.094 300.163 632.137 301.016C632.137 301.08 632.137 301.24 632.137 301.496C632.137 301.731 632.105 301.955 632.041 302.168C631.998 302.381 631.913 302.573 631.785 302.744C631.699 302.829 631.539 302.915 631.305 303C631.07 303.085 630.867 303.128 630.697 303.128C630.398 303.128 630.025 303 629.577 302.744C629.129 302.488 628.862 302.2 628.777 301.88L628.745 301.432C628.745 301.261 628.766 301.005 628.809 300.664C629.065 299.171 629.193 297.869 629.193 296.76C629.193 296.269 629.182 295.896 629.161 295.64L629.129 294.168C629.129 293.72 629.001 293.293 628.745 292.888C628.489 292.461 628.158 292.077 627.753 291.736Z" fill="white"/>
</svg>
