<svg width="223" height="140" viewBox="0 0 223 140" fill="none" xmlns="http://www.w3.org/2000/svg">
<g filter="url(#filter0_d_2687_16)">
<path d="M48.5255 75.4751H70.4981V61.7279C70.4981 61.7279 69.9115 51.1712 51.6784 47.4177C51.6784 47.4177 34.5207 44.8841 26.1619 49.0129C26.1619 49.0129 7.73324 54.5728 9.59076 72.0735C9.59076 72.0735 10.2996 81.7622 22.4468 88.5419L46.9857 98.6529C46.9857 98.6529 53.6093 102.054 43.3929 105.503L35.9383 105.691C35.9383 105.691 30.0969 105.573 29.1192 102.922L28.5326 94.1722L7 94.4302V107.145C7 107.145 7.63547 116.2 19.2695 121.643C28.9726 126.147 32.0522 124.599 38.749 125.397C46.2769 126.311 55.2713 123.168 59.8906 121.08C59.8906 121.08 64.6566 119.414 70.4981 111.954C70.4981 111.954 73.8465 106.582 73.1377 97.6441C73.1377 97.6441 74.7997 85.1169 53.6093 78.7125L38.578 73.9737C38.578 73.9737 31.1967 69.1645 36.1338 67.0062C38.969 65.8333 48.6721 64.4726 48.5255 69.4226V75.4751Z" fill="white"/>
<path d="M74.5596 48.0723V66.8163H85.7292V104.68H74.5596V123.987H126.35C126.35 123.987 93.7703 115.049 104.182 82.3698L113.885 48.0723H74.5596Z" fill="white"/>
<path d="M134.318 48.0729C134.318 48.0729 130.774 62.1954 129.307 67.7553C129.307 67.7553 144.729 64.5414 154.433 73.1275C154.433 73.1275 165.798 83.8484 163.94 95.4608C163.94 95.4608 164.893 117.301 139.719 123.33H164.136L177.31 102.804L191.07 123.33L216 124.081V104.399L205.392 104.774L191.461 84.2472L204.439 67.0984L216 67.2861V48.1668H189.383L177.627 66.3008L164.771 47.3691L134.318 48.0729Z" fill="white"/>
<path d="M140.458 87.2486C144.224 92.1235 142.663 98.1161 142.663 98.1161C140.507 105.678 132.183 104.989 132.183 104.989C122.743 103.918 122.991 94.1686 122.991 94.1686C123.065 83.9194 132.629 83.8719 132.629 83.8719C137.708 83.6816 140.458 87.2486 140.458 87.2486ZM136.593 47.3457L114.196 47.417L103.047 79.9244C103.047 79.9244 96.1348 98.0448 105.128 111.243C105.128 111.243 111.173 121.563 124.205 123.799C124.205 123.799 136.642 127.056 150.269 120.184C150.269 120.184 163.177 114.382 165.06 100.375C165.06 100.375 168.825 78.5689 150.417 68.6764C150.417 68.6764 141.176 63.1832 129.78 67.3685L136.593 47.3457Z" fill="#00A6FF"/>
</g>
<path fill-rule="evenodd" clip-rule="evenodd" d="M143.638 28.1984C143.638 38.3881 135.378 46.6486 125.188 46.6486C114.998 46.6486 106.737 38.3883 106.737 28.1984C106.737 18.0086 114.998 9.74805 125.188 9.74805C135.378 9.74805 143.638 18.0086 143.638 28.1984Z" fill="#2072B4"/>
<path fill-rule="evenodd" clip-rule="evenodd" d="M131.901 11.0078C135.134 12.8152 137.373 16.2712 138.759 19.6017C140.305 23.3191 141.26 27.7371 139.957 31.6718C138.869 34.9561 136.492 37.6937 133.497 39.4019C130.151 41.3101 126.342 41.8152 122.534 41.7064C118.308 41.5856 114.443 40.3588 111.168 37.6298C109.789 36.481 108.595 35.1417 107.565 33.6778C109.899 41.1921 116.906 46.6486 125.188 46.6486C135.378 46.6486 143.638 38.3881 143.638 28.1985C143.638 20.3769 138.771 13.6929 131.901 11.0078Z" fill="#1D56A3"/>
<path fill-rule="evenodd" clip-rule="evenodd" d="M114.52 13.1335C115.05 13.2668 115.577 13.4145 116.11 13.5295C116.564 13.6273 116.84 14.192 117.401 14.0008C117.537 13.9542 117.766 14.0585 117.774 13.8177C117.781 13.5819 117.583 13.5502 117.389 13.5388C117.107 13.5226 116.789 13.6639 116.768 13.1192C116.755 12.7761 116.273 13.1177 115.996 12.9232C116.435 12.4929 116.84 12.1208 117.5 12.1951C117.758 12.2239 117.947 12.2806 118.112 12.4946C118.535 13.0419 118.928 13.0818 119.468 12.6601C119.592 12.5634 119.722 12.3844 119.864 12.5722C119.996 12.746 119.786 12.841 119.685 12.9519C119.471 13.1858 119.22 13.3223 118.89 13.289C118.603 13.2597 118.49 13.3975 118.523 13.6831C118.555 13.9605 118.729 13.9607 118.953 13.9674C119.483 13.9825 119.913 13.6417 120.431 13.5892C120.696 13.5623 120.819 13.2823 120.527 13.0719C120.395 12.9762 120.296 12.9133 120.372 12.7512C120.439 12.609 120.575 12.5599 120.722 12.5582C121.063 12.5541 121.403 12.5571 121.733 12.5571C121.827 12.7725 121.654 12.8315 121.567 12.9116C121.396 13.0678 121.236 13.2011 121.372 13.4681C121.494 13.7059 121.703 13.7677 121.926 13.7363C122.233 13.6924 122.122 13.4193 122.109 13.2495C122.08 12.8795 122.317 12.738 122.587 12.6534C123.225 12.4539 123.88 12.2961 124.503 12.6857C124.952 12.9661 125.701 12.914 125.674 13.7496C125.667 13.9517 126.328 13.8603 125.987 14.3135C125.791 14.5745 125.51 14.4554 125.263 14.4963C125.224 14.5026 125.165 14.508 125.153 14.5325C124.638 15.5726 123.994 14.6159 123.338 14.7522C123.558 14.3768 123.86 14.3342 124.085 14.1821C124.211 14.0977 124.43 14.0626 124.388 13.8608C124.349 13.6788 124.182 13.5459 123.998 13.5306C123.599 13.4972 123.183 13.4645 122.818 13.6583C122.511 13.8211 122.306 14.1225 121.906 14.1944C121.769 14.2189 121.657 14.671 121.421 14.8608C121.255 14.9939 121.104 15.0072 121.057 14.7966C120.964 14.3686 120.715 14.5185 120.464 14.5896C119.816 14.7731 119.283 15.1823 118.713 15.5114C118.317 15.7399 118.577 16.0858 118.746 16.343C118.866 16.5252 119.081 16.6301 119.308 16.6617C119.79 16.7283 120.233 16.819 120.086 17.486C120.06 17.6053 120.119 17.7233 120.276 17.7375C120.44 17.7524 120.558 17.6738 120.602 17.528C120.754 17.0238 121.128 16.7994 121.606 16.696C121.95 16.6215 121.871 16.3434 121.877 16.1151C121.903 15.0124 122.506 14.6822 123.49 15.2282C123.663 15.3247 123.704 15.4554 123.657 15.6277C123.512 16.1599 123.827 16.1037 124.152 16.0087C124.285 15.9697 124.406 15.8898 124.529 15.8209C124.817 15.6594 124.946 15.755 124.912 16.0684C124.867 16.494 125.021 16.7735 125.398 17.0063C125.78 17.2426 125.744 17.6236 125.335 17.8358C124.92 18.0509 124.968 18.1892 125.339 18.3804C125.534 18.481 125.919 18.5937 125.697 18.8631C125.463 19.1467 125.101 18.8519 124.805 18.7746C124.575 18.7147 124.472 18.5536 124.649 18.3223C124.745 18.1956 124.88 18.0556 124.703 17.9105C124.559 17.7935 124.46 17.9536 124.338 18.0102C124.038 18.1506 123.745 18.2096 123.457 17.9327C123.203 17.688 122.877 17.6585 122.696 17.9947C122.463 18.4263 123.053 18.3018 123.119 18.4963C121.804 19.0022 120.851 19.9942 119.817 20.8726C119.772 20.9115 119.704 20.952 119.694 21.0013C119.503 21.9425 118.606 22.2126 118.011 22.7663C117.747 23.0114 117.67 23.2749 117.685 23.6199C117.692 23.7741 117.933 24.07 117.582 24.0922C117.369 24.1056 117.031 23.9718 117.053 23.6987C117.102 23.0631 116.688 23.1583 116.328 23.1827C115.698 23.2249 115.073 23.0961 114.437 23.3746C113.689 23.7024 113.376 24.2908 113.106 24.9761C112.928 25.4265 113.076 25.8014 113.403 26.0392C113.71 26.2625 114.122 26.2727 114.48 26.0478C114.735 25.8882 114.976 25.7082 115.23 25.5479C115.351 25.4717 115.456 25.2735 115.638 25.4426C115.77 25.5649 115.709 25.7243 115.644 25.8335C115.324 26.3722 115.435 26.6584 116.09 26.6754C116.286 26.6804 116.359 26.8077 116.375 26.9935C116.388 27.1527 116.433 27.3091 116.453 27.468C116.573 28.4353 116.575 28.4142 117.489 28.5746C117.924 28.6511 118.153 28.4327 118.406 28.1563C119.053 27.448 119.582 27.4353 120.256 28.1159C120.606 28.4693 121.053 28.4288 121.362 28.2261C121.795 27.941 122.057 28.0993 122.229 28.4238C122.557 29.0405 122.938 29.4144 123.719 29.3334C124.172 29.2864 124.243 29.815 124.393 30.1481C124.513 30.4135 124.275 30.8115 124.575 30.987C125.021 31.2481 125.509 31.452 126.045 31.4703C126.186 31.4751 126.327 31.4802 126.467 31.4705C127.009 31.4329 127.516 31.443 127.748 32.0801C127.788 32.1886 127.949 32.2929 128.072 32.3243C128.7 32.4841 128.602 32.9726 128.318 33.2188C127.492 33.9332 127.559 34.8922 127.448 35.8097C127.37 36.4597 126.923 36.8847 126.264 36.886C125.403 36.8875 125.17 37.1513 125.401 37.9809C125.536 38.4636 125.467 38.8224 125.111 39.1732C124.857 39.4246 124.588 39.7037 124.451 40.0244C124.09 40.8704 123.37 41.1588 122.574 41.3438C122.248 41.4198 122.072 41.528 122.417 41.7715C122.735 41.9962 122.605 42.1573 122.424 42.3462C122.131 42.6526 122.256 42.8732 122.597 42.9606C122.97 43.0563 123.061 43.2411 122.896 43.5622C122.673 43.9953 122.861 44.2686 123.201 44.5301C123.357 44.6503 123.626 44.7791 123.491 45.0513C123.384 45.2692 123.165 45.0946 122.999 45.1189C122.145 45.2451 121.712 44.5887 121.296 44.0799C120.791 43.4633 120.293 42.7692 120.542 41.845C120.611 41.5919 120.658 41.268 120.425 41.0436C119.986 40.6193 119.882 40.1099 120.102 39.5728C120.295 39.1002 119.819 38.8381 119.835 38.4287C119.858 37.8476 119.839 37.2648 119.84 36.6826C119.841 35.6605 119.536 35.1862 118.576 34.8685C118.246 34.7596 118.097 34.6211 118.02 34.2719C117.909 33.7703 117.464 33.4561 117.152 33.0742C116.459 32.2261 116.559 30.9297 117.464 30.3428C118.001 29.9944 117.626 29.5854 117.656 29.2121C117.686 28.8382 117.315 28.9026 117.118 28.911C116.366 28.9429 115.871 28.5503 115.485 27.9832C115.264 27.6584 114.973 27.5102 114.608 27.4187C114.286 27.3381 113.862 27.3959 113.786 26.8843C113.765 26.7383 113.531 26.7334 113.417 26.7818C112.859 27.0177 112.358 26.7127 111.843 26.6233C111.446 26.5544 111.04 25.7207 111.179 25.3248C111.25 25.1221 111.209 24.9955 111.095 24.835C110.659 24.2178 110.144 23.6363 110.1 22.8232C110.093 22.6944 110.036 22.571 109.888 22.5837C109.694 22.6003 109.723 22.7692 109.708 22.9068C109.652 23.4256 109.906 23.8228 110.176 24.2311C110.329 24.4607 110.658 24.8032 110.338 25.0149C109.981 25.2503 109.773 24.8673 109.567 24.5736C109.189 24.0349 109.056 23.4588 109.117 22.8163C109.143 22.5536 109.145 22.2902 108.818 22.1739C108.397 22.0246 108.199 21.7502 108.355 21.2889C108.404 21.1441 108.362 21.0502 108.181 21.1039C109.214 18.456 110.854 16.2379 112.965 14.3564C113.458 13.9176 113.954 13.4796 114.52 13.1335Z" fill="#98CA8A"/>
<path fill-rule="evenodd" clip-rule="evenodd" d="M139.476 39.673C139.124 39.7238 138.928 39.5987 138.981 39.2173C139.054 38.6982 138.874 38.2701 138.517 37.9084C138.157 37.5425 138.265 37.0842 138.264 36.6526C138.263 36.3213 138.249 36.0243 137.959 35.7894C137.564 35.4693 137.541 35.0271 137.815 34.6601C138.372 33.9121 138.266 33.2606 137.746 32.5441C137.247 31.8585 136.84 31.1138 137.165 30.1982C137.236 29.9968 137.188 29.8054 136.899 29.7726C136.445 29.7216 136.013 29.6496 135.619 29.3453C135.402 29.1782 135.01 29.2064 134.748 29.3472C134.021 29.7375 133.216 29.5043 132.467 29.6858C132.413 29.6994 132.333 29.6974 132.291 29.6666C131.606 29.1605 131.113 28.4713 130.594 27.8161C130.295 27.4382 130.493 26.9223 130.473 26.4683C130.465 26.2919 130.646 26.2038 130.71 26.0686C130.812 25.8541 131.068 25.6245 130.611 25.4106C130.297 25.2635 130.231 24.9172 130.606 24.6542C130.934 24.424 131.237 24.155 131.578 23.9465C132.081 23.6387 132.433 23.3228 132.387 22.6258C132.349 22.0488 133.018 21.8582 133.38 21.8808C134.433 21.9472 135.352 21.416 136.372 21.374C137.102 21.3441 137.147 21.3083 137.205 22.0146C137.227 22.2741 137.324 22.4061 137.579 22.4763C138.098 22.6191 138.642 22.6835 139.116 22.9756C139.263 23.066 139.395 23.055 139.492 22.8423C139.686 22.4139 140.232 22.2084 140.588 22.5293C141.275 23.1485 142.059 23.0501 142.854 23.0318C144.479 29.1373 143.371 34.6879 139.476 39.673Z" fill="#98CA8A"/>
<path fill-rule="evenodd" clip-rule="evenodd" d="M142.368 21.4647C141.229 21.4897 141.162 21.4526 140.931 20.4251C140.865 20.1348 140.747 20.175 140.56 20.2763C140.426 20.3482 140.38 20.4725 140.31 20.5963C140.2 20.7925 140.304 21.2067 140.035 21.172C139.737 21.1339 139.439 20.8024 139.438 20.4908C139.435 19.8935 139.051 19.6086 138.67 19.2905C138.594 19.2269 138.521 19.1382 138.432 19.115C138.2 19.0538 137.882 18.9717 137.754 19.1617C137.606 19.3796 137.764 19.6719 137.964 19.8464C138.142 20.0023 138.366 20.1074 138.575 20.225C138.759 20.3282 138.918 20.4126 138.814 20.6842C138.727 20.9131 138.815 21.2205 138.471 21.3148C138.205 21.3876 138.002 21.3422 137.877 21.0792C137.989 20.94 138.147 21.0262 138.27 20.9773C138.497 20.8871 138.551 20.7766 138.336 20.595C137.9 20.2265 137.301 20.0577 137.006 19.5128C136.991 19.4845 136.895 19.4731 136.852 19.4908C136.045 19.8238 135.227 20.1085 134.854 21.0439C134.626 21.6172 133.062 21.6351 132.815 21.0787C132.648 20.7025 132.586 20.2248 132.841 19.8621C133.056 19.5565 133.468 19.5543 133.827 19.5668C134.004 19.5731 134.178 19.6407 134.356 19.6676C134.504 19.6902 134.629 19.6553 134.694 19.4916C134.752 19.3445 134.724 19.2513 134.62 19.1206C134.237 18.6396 134.389 18.2776 135 18.2302C135.316 18.2061 135.56 18.0917 135.685 17.8236C135.979 17.1891 136.48 17.0467 137.116 17.1372C137.279 17.1602 137.526 17.2524 137.591 17.0325C137.642 16.8576 137.604 16.6207 137.522 16.451C137.404 16.2037 137.2 16.4135 137.054 16.4561C136.871 16.5091 136.745 16.5253 136.675 16.32C136.601 16.1042 136.469 15.9866 136.246 15.8759C135.863 15.6851 136.01 15.2227 136.507 14.9819C136.85 14.8158 137.332 14.8083 137.336 14.2559C139.206 16.0047 140.774 17.9793 141.853 20.3176C142.028 20.6986 142.197 21.0824 142.368 21.4647Z" fill="#98CA8A"/>
<path fill-rule="evenodd" clip-rule="evenodd" d="M134.537 17.9858C134.373 17.9496 134.105 18.0894 134.021 17.8593C133.947 17.6556 134.09 17.4839 134.271 17.3119C134.667 16.9347 134.177 16.8445 133.993 16.6713C133.865 16.5505 133.664 16.4792 133.748 16.2475C133.806 16.0868 133.928 15.9828 134.099 15.9507C134.311 15.9111 134.487 15.9087 134.549 16.1934C134.657 16.6914 134.848 17.149 135.328 17.4174C135.52 17.5249 135.426 17.6347 135.333 17.7538C135.127 18.017 134.836 17.9724 134.537 17.9858Z" fill="#98CA8A"/>
<path fill-rule="evenodd" clip-rule="evenodd" d="M133.021 17.7417C132.969 17.7326 132.903 17.7363 132.854 17.7098C132.725 17.6404 132.718 17.5052 132.762 17.3979C132.903 17.0604 133.082 16.7499 133.505 16.7171C133.674 16.704 133.831 16.7449 133.898 16.9159C133.98 17.1248 133.846 17.2489 133.69 17.3566C133.479 17.5017 133.302 17.7025 133.021 17.7417Z" fill="#98CA8A"/>
<path fill-rule="evenodd" clip-rule="evenodd" d="M124.012 19.02C124.003 19.2192 123.807 19.2903 123.71 19.4279C123.611 19.5689 123.434 19.5888 123.277 19.5102C123.219 19.4809 123.147 19.3824 123.157 19.3295C123.193 19.1315 123.377 19.1979 123.499 19.1886C123.687 19.1744 123.752 18.8201 124.012 19.02Z" fill="#98CA8A"/>
<path fill-rule="evenodd" clip-rule="evenodd" d="M122.536 19.6467C122.415 19.6281 122.36 19.5485 122.396 19.4403C122.418 19.3751 122.487 19.2861 122.543 19.2803C122.653 19.2685 122.71 19.3617 122.717 19.4698C122.725 19.5943 122.651 19.6432 122.536 19.6467Z" fill="#98CA8A"/>
<path fill-rule="evenodd" clip-rule="evenodd" d="M123.201 44.5295C122.861 44.2681 122.673 43.9945 122.896 43.5616C123.061 43.2407 122.97 43.0557 122.597 42.9601C122.256 42.8726 122.131 42.6521 122.424 42.3456C122.605 42.1567 122.735 41.9956 122.417 41.771C122.379 41.7445 122.349 41.7195 122.323 41.696C121.74 41.6741 121.163 41.6301 120.594 41.5645C120.586 41.6616 120.566 41.7574 120.543 41.8444C120.293 42.7684 120.792 43.4628 121.296 44.0794C121.712 44.5881 122.146 45.2448 122.999 45.1184C123.165 45.094 123.384 45.2689 123.491 45.0507C123.626 44.7785 123.357 44.6497 123.201 44.5295Z" fill="#83BB7C"/>
<path fill-rule="evenodd" clip-rule="evenodd" d="M142.854 23.0318C142.06 23.0499 141.275 23.1486 140.588 22.5294C140.35 22.3146 140.027 22.3364 139.781 22.502C140.641 25.4975 140.934 28.7206 139.957 31.6716C139.477 33.12 138.746 34.4616 137.822 35.6559C137.862 35.702 137.906 35.747 137.959 35.7894C138.248 36.0244 138.263 36.3214 138.264 36.6526C138.264 37.0842 138.157 37.5426 138.517 37.9085C138.873 38.2701 139.053 38.6983 138.981 39.2173C138.928 39.5988 139.221 39.8034 139.573 39.7528C143.467 34.7674 144.478 29.1371 142.854 23.0318Z" fill="#83BB7C"/>
<path fill-rule="evenodd" clip-rule="evenodd" d="M141.853 20.3176C140.774 17.9793 139.206 16.0047 137.336 14.2559C137.332 14.8083 136.85 14.8158 136.507 14.9819C136.428 15.02 136.36 15.0642 136.299 15.1111C136.601 15.5335 136.886 15.9683 137.153 16.412C137.283 16.3448 137.429 16.2561 137.522 16.4508C137.603 16.6205 137.642 16.8574 137.59 17.0323C137.581 17.062 137.569 17.085 137.554 17.1042C137.942 17.8027 138.29 18.5153 138.598 19.2254C138.622 19.2478 138.646 19.27 138.67 19.2901C139.051 19.6082 139.435 19.8931 139.438 20.4903C139.439 20.802 139.737 21.1335 140.035 21.1716C140.304 21.206 140.2 20.7919 140.31 20.5959C140.38 20.4718 140.426 20.3478 140.56 20.2758C140.747 20.1746 140.865 20.1341 140.931 20.4247C141.162 21.4522 141.229 21.4893 142.368 21.4643C142.197 21.082 142.028 20.6982 141.853 20.3176Z" fill="#83BB7C"/>
<path d="M110.243 19.2585C110.5 18.4881 110.942 17.7636 111.417 17.1101C111.977 16.3395 112.642 15.6301 113.367 15.0132C113.708 14.7244 114.077 14.4571 114.461 14.2297C114.612 14.1405 114.764 14.0531 114.92 13.9721C115.066 13.8957 115.265 14.0417 115.14 14.1978C115.088 14.2855 115.002 14.3643 114.935 14.4408C114.784 14.606 114.629 14.7684 114.482 14.9368C114.164 15.3025 113.846 15.6682 113.529 16.0348C112.932 16.7248 112.368 17.4438 111.761 18.1252C111.469 18.4537 111.173 18.7772 110.864 19.0907C110.751 19.2064 110.634 19.3203 110.51 19.425C110.388 19.5286 110.191 19.422 110.243 19.2585Z" fill="#C6E0BB"/>
<path d="M109.024 21.2508C108.986 21.2508 109.079 20.8245 109.093 20.7864C109.167 20.5801 109.289 20.3897 109.428 20.2219C109.529 20.1004 110.089 19.5443 110.124 20.0128C110.149 20.3559 109.93 20.7675 109.725 21.0253C109.609 21.1706 109.471 21.3134 109.304 21.3983C109.186 21.4582 109.039 21.3843 109.024 21.2508Z" fill="#C6E0BB"/>
<path d="M30.98 38.0223H24.2069V37.3316L26.3012 35.6829V23.3621L20.3525 38.0223H19.1271L13.2229 23.2062V35.9503L15.5623 37.1311L15.1167 38.0223H9.9032V37.3316L11.9975 35.6829V22.6269L9.6804 21.3792L10.126 20.488H14.9607L20.5307 34.4798L26.0784 20.488H31.2028V21.1787L29.0862 22.8274V36.3067L31.4256 37.1311L30.98 38.0223ZM47.2481 38H33.8802V37.3093L35.9745 35.6606V22.159L33.6574 21.3792L34.103 20.488H47.0253L48.2284 20.087V25.2113L47.56 25.4341L44.9087 21.4906H38.7595V28.5533H42.2574L43.8839 25.7015H44.5745V32.4746L43.6833 32.9202L42.2797 29.5559H38.7595V36.9974H44.8196L47.7828 32.6083L48.4512 32.8311V38.401L47.2481 38ZM61.1609 20.2875C62.6908 20.2875 64.0424 20.6588 65.2158 21.4015C66.4041 22.1293 67.3175 23.1467 67.9562 24.4538C68.6098 25.7609 68.9365 27.2388 68.9365 28.8875C68.9365 30.5808 68.439 32.1478 67.4438 33.5886C66.4635 35.0145 65.2381 36.1508 63.7676 36.9974C62.312 37.8292 60.9158 38.2451 59.579 38.2451C58.8957 38.2451 58.2051 38.2079 57.507 38.1337C56.3633 38.0594 55.4795 38.0223 54.8557 38.0223H52.0261V37.3316L54.1204 35.6829V22.1367L51.8033 21.3792L52.2489 20.488H54.8334C56.2444 20.488 57.6184 20.4434 58.9552 20.3543C59.9652 20.2949 60.7004 20.2652 61.1609 20.2652V20.2875ZM60.2028 36.5964C61.2723 36.5964 62.2452 36.3142 63.1215 35.7497C63.9978 35.1705 64.6811 34.3758 65.1712 33.3658C65.6763 32.3409 65.9288 31.1972 65.9288 29.9347C65.9288 28.4196 65.6911 27.0457 65.2158 25.8129C64.7405 24.5652 64.0127 23.5701 63.0324 22.8274C62.0669 22.0847 60.8638 21.7134 59.423 21.7134C58.517 21.7134 57.6778 21.9808 56.9054 22.5155V36.0394C57.8115 36.4107 58.9106 36.5964 60.2028 36.5964ZM78.5987 38H71.8256V37.3093L73.9199 35.6606V22.159L71.6028 21.3792L72.0484 20.488H78.8215V21.1787L76.7049 22.8274V36.3067L79.0443 37.1088L78.5987 38ZM99.0872 38H92.3141V37.3093L94.4084 35.6829L92.6928 31.5611H85.2068L83.3798 35.772L87.3011 37.1088L86.8555 38H80.0824V37.3093L82.1767 35.6606L88.4819 21.201L90.799 20.0647L97.3048 35.7497L99.5328 37.1088L99.0872 38ZM89.0389 22.7383L85.6524 30.5585H92.2918L89.0389 22.7383Z" fill="#00A6FF"/>
<path d="M175.461 24.6078L170.114 39.2011L167.797 40.3374L164.254 29.8436L160.935 39.2011L158.617 40.3374L152.891 24.5632L150.775 23.2933L151.221 22.4021H157.325V23.0927L155.699 24.3181L160.333 37.3742L163.653 28.1057L162.45 24.5409L160.4 23.2933L160.845 22.4021H167.396V23.0927L165.413 24.6301L169.557 37.3296L174.147 24.6301L170.181 23.2933L170.626 22.4021H177.399V23.0927L175.461 24.6078ZM192.111 39.9141H178.743V39.2234L180.837 37.5747V24.0731L178.52 23.2933L178.966 22.4021H191.888L193.091 22.001V27.1254L192.423 27.3482L189.772 23.4047H183.622V30.4674H187.12L188.747 27.6156H189.437V34.3886L188.546 34.8342L187.143 31.47H183.622V38.9115H189.683L192.646 34.5223L193.314 34.7451V40.3151L192.111 39.9141ZM208.118 30.4897C209.262 30.8164 210.16 31.366 210.814 32.1384C211.468 32.9108 211.794 33.8019 211.794 34.812C211.794 35.7477 211.416 36.6315 210.658 37.4633C209.915 38.2802 208.98 38.9337 207.851 39.4239C206.737 39.9141 205.675 40.1591 204.665 40.1591C203.922 40.1591 203.194 40.122 202.481 40.0477C201.293 39.9735 200.372 39.9363 199.719 39.9363H196.889V39.2457L198.983 37.597V24.0508L196.666 23.2933L197.112 22.4021H199.696C201.048 22.4021 202.377 22.3575 203.684 22.2684C204.694 22.209 205.437 22.1793 205.912 22.1793C206.908 22.1793 207.784 22.3724 208.541 22.7585C209.299 23.1447 209.878 23.672 210.279 24.3404C210.695 24.994 210.903 25.7292 210.903 26.5461C210.903 27.2888 210.643 28.0017 210.123 28.685C209.618 29.3534 208.95 29.9401 208.118 30.4451V30.4897ZM207.895 27.6601C207.895 26.4867 207.583 25.5287 206.96 24.786C206.336 24.0434 205.407 23.672 204.175 23.672C203.283 23.672 202.481 23.9245 201.768 24.4295V30.3337H204.954C205.875 30.3337 206.596 30.1035 207.116 29.643C207.635 29.1677 207.895 28.4993 207.895 27.6378V27.6601ZM205.289 38.5327C206.358 38.5327 207.205 38.2654 207.828 37.7306C208.467 37.1959 208.787 36.4755 208.787 35.5695C208.787 34.4109 208.445 33.4752 207.762 32.7622C207.093 32.0493 206.091 31.6705 204.754 31.6259C204.65 31.6408 204.509 31.6482 204.331 31.6482H201.768V37.9534C202.764 38.3545 203.937 38.555 205.289 38.555V38.5327Z" fill="#00A6FF"/>
<defs>
<filter id="filter0_d_2687_16" x="0.661895" y="46.6484" width="221.676" height="93.1709" filterUnits="userSpaceOnUse" color-interpolation-filters="sRGB">
<feFlood flood-opacity="0" result="BackgroundImageFix"/>
<feColorMatrix in="SourceAlpha" type="matrix" values="0 0 0 0 0 0 0 0 0 0 0 0 0 0 0 0 0 0 127 0" result="hardAlpha"/>
<feOffset dy="7.92263"/>
<feGaussianBlur stdDeviation="3.16905"/>
<feComposite in2="hardAlpha" operator="out"/>
<feColorMatrix type="matrix" values="0 0 0 0 0 0 0 0 0 0 0 0 0 0 0 0 0 0 0.25 0"/>
<feBlend mode="normal" in2="BackgroundImageFix" result="effect1_dropShadow_2687_16"/>
<feBlend mode="normal" in="SourceGraphic" in2="effect1_dropShadow_2687_16" result="shape"/>
</filter>
</defs>
</svg>
